<?xml version="1.0" encoding="UTF-8"?>
<svg version="1.1" xmlns="http://www.w3.org/2000/svg" width="600" height="600">
<path d="M0,0 L600,0 L600,600 L0,600 Z " fill="#EDEDED" transform="translate(0,0)"/>
<path d="M0,0 L30,0 L36,4 L44,12 L55,28 L64,38 L74,51 L86,72 L95,93 L101,112 L104,125 L105,135 L106,189 L107,194 L107,206 L103,215 L95,222 L92,224 L105,226 L116,230 L122,233 L124,229 L131,225 L141,225 L153,229 L162,235 L165,239 L165,248 L159,257 L149,278 L138,306 L127,339 L124,352 L124,363 L120,369 L117,371 L106,371 L94,366 L85,360 L81,356 L78,357 L70,367 L63,373 L61,374 L47,374 L35,370 L31,368 L26,369 L-3,370 L-28,374 L-60,382 L-71,386 L-77,386 L-83,382 L-86,378 L-96,378 L-122,382 L-144,387 L-167,394 L-174,394 L-180,390 L-185,381 L-186,377 L-187,378 L-188,392 L-192,397 L-194,398 L-204,398 L-214,395 L-224,389 L-230,384 L-234,376 L-234,369 L-230,354 L-218,319 L-207,292 L-201,279 L-215,290 L-236,303 L-259,314 L-283,323 L-295,326 L-299,335 L-310,365 L-316,383 L-322,404 L-323,419 L-326,424 L-331,427 L-340,427 L-351,423 L-361,417 L-367,412 L-371,405 L-371,396 L-366,375 L-354,339 L-349,325 L-353,318 L-353,309 L-349,303 L-344,300 L-338,299 L-327,273 L-316,249 L-310,236 L-321,237 L-353,244 L-365,248 L-372,248 L-377,243 L-378,241 L-378,234 L-373,223 L-367,214 L-361,209 L-341,205 L-287,199 L-279,193 L-270,193 L-266,194 L-266,184 L-261,176 L-252,168 L-236,159 L-221,152 L-207,146 L-195,137 L-185,126 L-178,118 L-168,111 L-156,105 L-143,101 L-135,95 L-127,88 L-111,80 L-100,73 L-90,65 L-67,53 L-52,44 L-39,33 L-30,24 L-26,22 L-17,22 L-16,15 L-10,6 L-5,2 Z " fill="#680A09" transform="translate(414,51)"/>
<path d="M0,0 L10,0 L12,1 L19,1 L28,0 L36,7 L45,19 L53,30 L62,40 L70,51 L79,67 L87,84 L95,108 L99,129 L100,203 L95,210 L85,216 L77,219 L64,219 L59,216 L56,213 L56,211 L54,211 L54,213 L52,213 L55,218 L63,223 L73,224 L68,229 L60,236 L51,246 L46,253 L45,253 L41,239 L35,230 L31,228 L16,228 L-17,231 L-34,234 L-41,240 L-48,254 L-49,257 L-49,265 L-45,271 L-43,272 L-37,272 L-26,267 L-24,268 L-31,275 L-39,282 L-55,298 L-62,306 L-72,317 L-85,334 L-89,342 L-123,342 L-117,334 L-84,301 L-76,294 L-62,282 L-56,278 L-54,278 L-52,273 L-52,258 L-57,244 L-62,238 L-64,237 L-88,237 L-124,241 L-133,244 L-139,251 L-145,264 L-148,260 L-153,255 L-160,251 L-160,250 L-150,248 L-140,243 L-133,236 L-129,228 L-128,225 L-128,210 L-133,202 L-139,198 L-142,197 L-153,196 L-153,195 L-141,194 L-138,193 L-122,193 L-114,197 L-106,204 L-99,208 L-92,208 L-82,202 L-72,196 L-62,196 L-58,197 L-50,197 L-35,195 L-24,195 L-10,201 L-6,202 L19,202 L37,207 L49,209 L47,205 L47,196 L48,189 L40,173 L38,168 L37,162 L36,135 L34,153 L34,177 L36,183 L35,192 L34,193 L27,193 L16,188 L19,182 L19,173 L13,164 L4,157 L-5,154 L-19,154 L-25,158 L-29,163 L-30,165 L-32,165 L-33,176 L-36,182 L-38,183 L-38,173 L-43,165 L-51,161 L-60,161 L-68,166 L-69,168 L-70,177 L-73,181 L-76,181 L-79,175 L-79,162 L-78,157 L-87,158 L-90,166 L-90,186 L-92,188 L-97,187 L-102,179 L-105,170 L-112,169 L-121,173 L-125,179 L-128,180 L-135,180 L-138,174 L-138,165 L-132,155 L-130,152 L-135,150 L-138,149 L-145,163 L-149,171 L-152,179 L-153,180 L-166,180 L-166,178 L-156,172 L-152,165 L-151,162 L-151,155 L-155,149 L-163,145 L-170,143 L-186,143 L-196,148 L-200,153 L-203,162 L-206,167 L-206,177 L-204,181 L-205,185 L-216,185 L-220,184 L-220,176 L-224,173 L-227,174 L-240,175 L-247,179 L-254,179 L-259,177 L-261,180 L-260,186 L-255,190 L-251,192 L-226,193 L-218,195 L-222,196 L-228,195 L-256,194 L-263,191 L-268,190 L-267,179 L-262,171 L-253,163 L-237,154 L-222,147 L-208,141 L-196,132 L-186,121 L-179,113 L-169,106 L-157,100 L-144,96 L-136,90 L-128,83 L-112,75 L-101,68 L-91,60 L-68,48 L-53,39 L-40,28 L-31,19 L-27,17 L-18,17 L-13,19 L-12,12 L-7,4 Z " fill="#CB7A04" transform="translate(415,56)"/>
<path d="M0,0 L1,2 L-7,22 L-19,57 L-22,68 L-22,79 L-18,87 L-10,95 L6,103 L12,105 L24,105 L32,101 L34,98 L38,99 L44,101 L53,101 L64,97 L83,92 L108,87 L114,86 L129,86 L137,92 L150,92 L170,86 L202,79 L217,77 L250,76 L260,80 L266,81 L278,81 L286,78 L294,71 L299,66 L312,74 L307,83 L294,99 L285,109 L270,124 L256,135 L240,146 L224,155 L203,165 L184,172 L159,178 L137,181 L93,181 L70,178 L53,174 L29,166 L9,157 L-9,147 L-26,135 L-36,127 L-46,118 L-63,101 L-74,87 L-83,74 L-86,70 L-84,61 L-74,34 L-69,31 L-45,23 L-27,15 L-4,3 Z " fill="#DA1717" transform="translate(196,350)"/>
<path d="M0,0 L9,1 L18,7 L30,18 L37,27 L40,33 L45,50 L55,73 L60,90 L61,97 L61,121 L60,131 L60,155 L62,161 L61,170 L60,171 L53,171 L42,166 L45,160 L45,151 L39,142 L30,135 L21,132 L7,132 L1,136 L-3,141 L-4,143 L-6,143 L-7,154 L-10,160 L-12,161 L-12,151 L-17,143 L-25,139 L-34,139 L-42,144 L-43,146 L-44,155 L-47,159 L-50,159 L-53,153 L-53,140 L-52,135 L-61,136 L-64,144 L-64,164 L-66,166 L-71,165 L-76,157 L-79,148 L-86,147 L-95,151 L-99,157 L-102,158 L-109,158 L-112,152 L-112,143 L-106,133 L-104,130 L-109,128 L-112,127 L-119,141 L-123,149 L-126,157 L-127,158 L-140,158 L-140,156 L-130,150 L-126,143 L-125,140 L-125,133 L-129,127 L-137,123 L-144,121 L-160,121 L-170,126 L-174,131 L-177,140 L-180,145 L-180,155 L-178,159 L-179,163 L-190,163 L-194,162 L-194,154 L-198,151 L-201,152 L-214,153 L-221,157 L-228,157 L-232,154 L-230,150 L-217,141 L-201,133 L-181,124 L-170,117 L-159,106 L-152,98 L-143,90 L-127,82 L-114,78 L-104,69 L-96,64 L-77,54 L-63,43 L-51,36 L-35,28 L-24,21 L-14,13 L-4,3 Z " fill="#FCDD47" transform="translate(389,78)"/>
<path d="M0,0 L45,0 L76,5 L86,8 L86,12 L78,19 L69,27 L54,36 L38,44 L27,51 L14,61 L-2,69 L-12,75 L-20,83 L-38,89 L-52,97 L-64,108 L-75,121 L-88,130 L-111,140 L-128,149 L-138,157 L-145,165 L-148,174 L-157,176 L-166,182 L-191,184 L-196,185 L-207,185 L-207,178 L-199,152 L-190,132 L-180,113 L-172,101 L-163,89 L-152,76 L-133,57 L-119,46 L-105,36 L-84,24 L-64,15 L-47,9 L-23,3 Z " fill="#DA1717" transform="translate(289,63)"/>
<path d="M0,0 L14,0 L14,13 L24,13 L30,16 L38,23 L45,32 L53,44 L59,45 L60,52 L66,59 L74,60 L75,72 L76,75 L89,75 L89,89 L85,90 L89,98 L90,90 L104,90 L104,104 L91,104 L96,116 L97,119 L104,120 L104,134 L101,134 L104,150 L105,165 L119,165 L119,179 L108,179 L106,175 L106,229 L101,239 L110,243 L115,242 L120,239 L124,238 L134,238 L135,225 L149,225 L149,239 L142,240 L150,243 L150,240 L164,240 L164,255 L179,255 L179,269 L164,269 L164,284 L155,284 L152,293 L143,314 L149,315 L149,329 L137,329 L135,336 L134,344 L132,345 L127,360 L134,360 L134,374 L123,374 L124,383 L122,389 L134,390 L134,404 L120,404 L119,393 L111,398 L104,398 L104,404 L90,404 L90,394 L83,392 L74,386 L69,391 L61,398 L53,401 L41,401 L29,398 L25,396 L-8,397 L-28,400 L-59,407 L-75,412 L-88,412 L-96,406 L-111,406 L-129,409 L-154,415 L-172,421 L-181,421 L-188,418 L-191,418 L-196,423 L-201,425 L-213,425 L-226,420 L-236,414 L-245,405 L-248,398 L-248,387 L-240,361 L-229,330 L-225,320 L-238,328 L-260,339 L-287,349 L-297,352 L-302,364 L-310,386 L-320,418 L-321,420 L-316,420 L-316,434 L-323,434 L-323,441 L-328,449 L-316,450 L-316,464 L-330,464 L-331,451 L-337,454 L-346,454 L-346,464 L-360,464 L-360,449 L-375,449 L-375,439 L-378,438 L-380,435 L-390,434 L-390,420 L-385,420 L-383,406 L-382,404 L-390,404 L-390,390 L-378,390 L-375,375 L-373,375 L-372,370 L-368,359 L-375,359 L-375,345 L-365,344 L-367,340 L-367,329 L-375,329 L-375,315 L-361,315 L-360,317 L-356,315 L-360,314 L-360,300 L-346,300 L-345,299 L-345,288 L-343,291 L-342,294 L-329,265 L-338,266 L-351,269 L-346,270 L-346,284 L-360,284 L-360,271 L-370,275 L-376,275 L-376,284 L-390,284 L-390,270 L-388,269 L-390,267 L-391,269 L-405,269 L-405,255 L-391,255 L-390,240 L-386,239 L-378,228 L-373,224 L-365,221 L-360,221 L-360,210 L-346,210 L-346,218 L-323,215 L-298,213 L-289,207 L-287,206 L-280,206 L-279,199 L-273,191 L-263,182 L-247,173 L-230,165 L-218,160 L-205,150 L-196,139 L-188,131 L-174,122 L-165,118 L-152,114 L-144,106 L-134,100 L-118,92 L-101,79 L-91,73 L-74,65 L-62,57 L-52,48 L-45,42 L-43,42 L-41,38 L-33,35 L-30,35 L-30,30 L-27,27 L-20,19 L-15,15 L-7,13 L0,13 Z M-7,20 L-15,24 L-21,31 L-24,38 L-24,42 L-33,42 L-39,46 L-50,57 L-65,68 L-92,82 L-102,89 L-116,99 L-132,107 L-138,111 L-145,118 L-155,123 L-168,127 L-181,135 L-191,144 L-200,155 L-208,162 L-220,169 L-239,177 L-256,186 L-266,194 L-271,200 L-273,204 L-273,214 L-277,213 L-286,213 L-294,219 L-332,223 L-360,227 L-370,230 L-378,239 L-384,251 L-385,254 L-385,261 L-382,266 L-379,268 L-372,268 L-352,262 L-321,256 L-317,256 L-332,288 L-345,319 L-353,321 L-358,325 L-360,329 L-360,338 L-356,346 L-369,382 L-375,402 L-378,416 L-378,425 L-372,434 L-362,441 L-351,446 L-347,447 L-338,447 L-332,443 L-330,439 L-329,424 L-320,394 L-307,357 L-303,347 L-295,344 L-282,340 L-262,332 L-241,322 L-222,310 L-208,299 L-217,319 L-227,345 L-239,380 L-241,389 L-241,396 L-237,404 L-228,411 L-216,417 L-211,418 L-201,418 L-196,414 L-195,412 L-194,398 L-193,397 L-189,407 L-185,412 L-181,414 L-174,414 L-158,409 L-129,402 L-103,398 L-93,398 L-88,404 L-84,406 L-78,406 L-60,400 L-30,393 L-10,390 L19,389 L24,388 L36,393 L40,394 L54,394 L62,388 L70,379 L72,376 L76,378 L83,384 L96,390 L99,391 L110,391 L115,387 L117,383 L117,372 L123,349 L135,315 L147,287 L155,272 L158,268 L158,259 L153,253 L141,247 L134,245 L124,245 L115,251 L115,253 L104,248 L94,245 L85,244 L94,237 L98,232 L100,226 L100,214 L99,209 L98,155 L96,140 L90,119 L84,103 L76,86 L65,68 L54,55 L47,47 L39,35 L30,25 L25,21 L23,20 Z " fill="#FCF9F8" transform="translate(421,31)"/>
<path d="M0,0 L10,1 L17,4 L41,5 L64,8 L80,14 L87,20 L89,23 L89,36 L83,47 L72,60 L59,71 L44,81 L21,93 L-5,103 L-17,107 L-26,109 L-30,113 L-40,142 L-53,180 L-58,199 L-59,207 L-65,207 L-75,201 L-80,196 L-81,194 L-81,186 L-77,172 L-65,136 L-58,118 L-59,113 L-63,109 L-63,106 L-53,105 L-35,63 L-24,39 L-12,17 L-11,13 L-39,17 L-64,22 L-83,27 L-87,28 L-85,22 L-81,16 L-68,12 L-37,8 L-7,6 L-4,5 Z " fill="#FCDD46" transform="translate(137,256)"/>
<path d="M0,0 L1,0 L2,11 L3,38 L5,46 L10,58 L14,65 L13,72 L13,81 L14,85 L6,85 L-13,80 L-16,79 L-41,79 L-52,75 L-59,72 L-70,72 L-85,74 L-93,74 L-97,73 L-107,73 L-119,80 L-127,85 L-134,85 L-145,78 L-152,72 L-157,70 L-173,70 L-176,71 L-192,73 L-202,78 L-209,85 L-213,92 L-215,92 L-220,85 L-232,78 L-256,71 L-261,70 L-286,69 L-294,64 L-297,60 L-296,54 L-292,52 L-289,54 L-282,54 L-275,50 L-262,49 L-258,49 L-254,52 L-255,60 L-240,60 L-241,56 L-242,53 L-242,43 L-238,37 L-236,29 L-230,22 L-221,18 L-205,18 L-193,22 L-187,27 L-185,31 L-185,38 L-188,45 L-192,50 L-199,54 L-201,54 L-201,56 L-188,55 L-183,43 L-176,28 L-172,24 L-165,28 L-167,32 L-172,41 L-172,50 L-170,55 L-163,55 L-159,53 L-156,48 L-153,46 L-147,44 L-140,45 L-135,57 L-131,63 L-126,62 L-126,42 L-123,34 L-122,33 L-113,33 L-113,51 L-111,57 L-107,55 L-106,53 L-105,44 L-102,40 L-95,36 L-86,36 L-78,40 L-74,45 L-72,49 L-72,58 L-69,52 L-68,43 L-67,41 L-65,41 L-63,36 L-56,30 L-54,29 L-40,29 L-30,33 L-21,40 L-15,49 L-15,58 L-18,63 L-8,68 L-1,68 L0,59 L-2,53 L-2,29 Z " fill="#E19D08" transform="translate(450,180)"/>
<path d="M0,0 L9,1 L18,7 L30,18 L37,27 L40,33 L45,50 L55,73 L60,90 L61,97 L61,121 L60,131 L60,155 L62,161 L61,170 L60,171 L53,171 L42,166 L45,160 L45,151 L39,142 L30,135 L21,132 L7,132 L1,136 L-3,141 L-4,143 L-6,143 L-7,154 L-10,160 L-12,161 L-12,151 L-17,143 L-25,139 L-34,139 L-42,144 L-43,146 L-44,155 L-47,159 L-50,159 L-53,153 L-53,140 L-52,135 L-61,136 L-64,144 L-64,164 L-66,166 L-71,165 L-76,157 L-79,148 L-86,147 L-95,151 L-99,157 L-102,158 L-109,158 L-112,152 L-112,143 L-106,133 L-104,130 L-109,128 L-112,127 L-119,141 L-123,149 L-126,157 L-127,158 L-140,158 L-140,156 L-130,150 L-126,143 L-125,140 L-125,133 L-129,127 L-137,123 L-140,121 L-136,111 L-136,99 L-130,92 L-125,89 L-113,89 L-104,95 L-102,99 L-102,108 L-83,99 L-77,97 L-72,94 L-65,94 L-54,98 L-46,104 L-42,110 L-42,118 L-48,125 L-53,127 L-46,126 L-32,119 L-22,112 L-19,109 L-6,105 L0,101 L6,101 L8,103 L8,110 L4,111 L3,116 L-3,121 L-4,125 L7,123 L12,121 L11,107 L17,98 L26,99 L31,98 L34,103 L33,108 L35,111 L35,114 L37,114 L38,111 L38,102 L32,91 L35,82 L36,80 L36,70 L32,64 L32,61 L35,56 L35,40 L31,32 L22,20 L13,10 L5,5 L-2,3 Z " fill="#FBC32B" transform="translate(389,78)"/>
<path d="M0,0 L16,0 L25,4 L33,11 L35,15 L38,15 L45,2 L47,0 L55,0 L65,4 L67,5 L65,9 L57,25 L45,54 L33,88 L26,112 L25,119 L19,118 L9,112 L6,109 L6,100 L10,85 L17,65 L13,66 L1,86 L-14,108 L-25,122 L-27,123 L-34,123 L-44,120 L-52,115 L-58,109 L-59,106 L-59,94 L-55,79 L-47,59 L-37,39 L-30,28 L-20,15 L-10,5 Z " fill="#FCDD46" transform="translate(499,288)"/>
<path d="M0,0 L6,0 L10,5 L13,12 L13,22 L2,30 L-9,40 L-17,47 L-25,55 L-33,62 L-43,72 L-50,80 L-58,88 L-67,99 L-74,108 L-74,110 L-67,109 L-52,107 L-36,106 L-13,106 L-2,107 L2,109 L1,112 L-22,113 L-49,117 L-78,124 L-91,128 L-96,127 L-98,120 L-119,121 L-143,125 L-177,133 L-189,137 L-192,136 L-196,124 L-195,115 L-188,104 L-180,94 L-169,82 L-160,72 L-137,49 L-129,42 L-122,35 L-114,28 L-103,18 L-102,15 L-118,18 L-139,23 L-151,27 L-153,27 L-151,21 L-147,15 L-143,13 L-115,10 L-90,9 L-86,14 L-83,22 L-83,30 L-94,38 L-105,48 L-113,55 L-123,65 L-131,72 L-138,79 L-145,87 L-154,96 L-163,107 L-170,116 L-171,119 L-162,117 L-138,115 L-101,115 L-100,114 L-98,105 L-91,95 L-82,84 L-71,72 L-62,62 L-39,39 L-31,32 L-15,17 L-7,10 L-6,7 L-25,10 L-50,17 L-57,19 L-55,13 L-50,6 L-44,4 L-23,2 L-4,1 Z " fill="#FADB45" transform="translate(435,294)"/>
<path d="M0,0 L18,0 L32,7 L38,12 L44,3 L48,0 L57,0 L68,4 L73,9 L72,14 L67,22 L58,41 L47,69 L35,105 L32,115 L31,130 L22,129 L10,123 L3,117 L2,115 L2,104 L5,94 L-16,125 L-24,132 L-27,133 L-35,133 L-47,128 L-57,122 L-59,127 L-60,128 L-84,128 L-103,131 L-127,136 L-152,143 L-160,144 L-166,136 L-179,136 L-192,138 L-226,145 L-250,152 L-256,152 L-260,148 L-263,139 L-263,128 L-260,121 L-253,110 L-241,96 L-229,83 L-199,53 L-191,46 L-177,33 L-187,35 L-207,40 L-216,44 L-221,43 L-221,36 L-215,25 L-210,21 L-201,19 L-160,15 L-151,15 L-146,21 L-143,28 L-142,33 L-142,43 L-149,49 L-162,59 L-178,74 L-213,109 L-222,120 L-225,124 L-215,122 L-193,121 L-167,121 L-163,111 L-154,99 L-143,86 L-129,71 L-101,43 L-93,36 L-81,25 L-88,26 L-105,30 L-117,34 L-120,36 L-124,36 L-125,29 L-119,17 L-113,12 L-97,10 L-81,8 L-54,7 L-49,13 L-45,25 L-45,33 L-49,38 L-60,46 L-70,55 L-78,62 L-117,101 L-126,112 L-129,116 L-120,114 L-113,113 L-73,113 L-62,114 L-63,112 L-63,99 L-57,79 L-49,60 L-38,39 L-30,27 L-19,13 L-10,5 Z M1,5 L-9,10 L-21,22 L-31,36 L-40,52 L-50,73 L-56,90 L-58,99 L-58,111 L-55,116 L-47,123 L-38,127 L-33,128 L-26,128 L-21,123 L-12,112 L3,89 L14,71 L18,70 L8,100 L7,105 L7,114 L14,120 L22,124 L26,124 L29,109 L41,73 L50,49 L62,21 L68,12 L68,10 L60,6 L56,5 L48,5 L42,14 L39,20 L36,20 L32,14 L25,8 L17,5 Z M-63,11 L-67,12 L-99,14 L-111,16 L-116,21 L-120,28 L-120,30 L-110,27 L-88,21 L-69,18 L-72,23 L-86,36 L-94,43 L-111,59 L-132,80 L-139,88 L-148,98 L-158,111 L-162,118 L-163,125 L-164,126 L-201,126 L-225,128 L-234,130 L-230,123 L-219,110 L-210,100 L-202,92 L-195,84 L-188,77 L-180,70 L-170,60 L-159,51 L-148,42 L-146,41 L-146,33 L-150,23 L-153,20 L-178,21 L-206,24 L-212,28 L-216,36 L-216,38 L-204,35 L-187,30 L-173,27 L-165,26 L-168,31 L-183,45 L-191,52 L-198,59 L-206,66 L-230,90 L-237,98 L-246,108 L-257,124 L-259,129 L-258,139 L-254,148 L-243,145 L-220,139 L-196,134 L-182,132 L-161,131 L-159,138 L-154,139 L-136,134 L-112,128 L-85,124 L-62,123 L-62,119 L-65,118 L-76,117 L-99,117 L-122,119 L-133,121 L-137,121 L-135,117 L-125,104 L-113,91 L-97,74 L-90,67 L-82,60 L-74,52 L-66,45 L-52,34 L-50,33 L-50,23 L-55,13 L-57,11 Z " fill="#8A4412" transform="translate(498,283)"/>
<path d="M0,0 L13,0 L46,4 L66,5 L114,5 L139,4 L146,10 L150,12 L160,13 L155,18 L147,25 L138,35 L133,42 L132,42 L128,28 L122,19 L118,17 L103,17 L70,20 L53,23 L46,29 L39,43 L38,46 L38,54 L42,60 L44,61 L50,61 L61,56 L63,57 L56,64 L48,71 L32,87 L25,95 L15,106 L2,123 L-2,131 L-36,131 L-30,123 L3,90 L11,83 L25,71 L31,67 L33,67 L35,62 L35,47 L30,33 L25,27 L23,26 L-1,26 L-37,30 L-46,33 L-52,40 L-58,53 L-61,49 L-66,44 L-73,40 L-73,39 L-63,37 L-53,32 L-46,25 L-42,17 L-39,3 L-38,2 L-31,1 L-15,1 L-13,2 L-5,2 Z " fill="#FAF6F5" transform="translate(328,267)"/>
<path d="M0,0 L7,1 L15,9 L26,25 L35,36 L43,45 L54,63 L64,84 L72,108 L76,129 L76,145 L70,162 L64,171 L59,174 L47,174 L41,170 L37,164 L36,161 L35,119 L32,105 L18,71 L14,60 L13,43 L7,33 L0,26 L-15,15 L-14,11 L-7,5 Z " fill="#E8914F" transform="translate(438,56)"/>
<path d="M0,0 L3,3 L13,19 L23,32 L34,44 L40,51 L48,58 L60,68 L76,79 L93,89 L110,97 L132,105 L157,111 L181,114 L207,114 L222,113 L246,109 L273,101 L297,91 L315,81 L331,70 L342,61 L352,52 L367,37 L380,20 L385,13 L390,15 L394,18 L385,31 L376,42 L367,52 L352,67 L338,78 L322,89 L306,98 L285,108 L266,115 L241,121 L219,124 L175,124 L152,121 L135,117 L111,109 L91,100 L73,90 L56,78 L46,70 L36,61 L19,44 L8,30 L-1,17 L-4,13 L-2,4 Z " fill="#680909" transform="translate(114,407)"/>
<path d="M0,0 L10,0 L12,1 L22,1 L18,5 L10,11 L9,15 L25,27 L32,34 L37,43 L38,60 L44,76 L56,105 L59,119 L60,161 L64,169 L70,173 L82,173 L88,169 L94,157 L98,145 L99,145 L100,186 L100,203 L97,206 L95,196 L90,192 L82,189 L72,189 L62,193 L57,198 L54,206 L52,203 L53,196 L53,187 L45,172 L42,161 L41,135 L38,111 L33,93 L22,68 L17,51 L11,41 L-3,27 L-13,20 L-12,12 L-7,4 Z " fill="#B76129" transform="translate(415,56)"/>
<path d="M0,0 L10,0 L6,5 L-11,17 L-32,28 L-50,35 L-70,40 L-87,42 L-121,42 L-143,38 L-163,32 L-180,24 L-184,22 L-180,21 L-173,24 L-164,24 L-153,20 L-134,15 L-109,10 L-103,9 L-88,9 L-80,15 L-67,15 L-47,9 L-15,2 Z " fill="#B72020" transform="translate(413,427)"/>
<path d="M0,0 L15,0 L26,2 L35,7 L40,13 L41,15 L41,25 L37,36 L31,46 L22,56 L8,67 L-7,76 L-22,83 L-36,88 L-41,88 L-40,81 L-24,46 L-9,16 Z " fill="#680A08" transform="translate(155,267)"/>
<path d="M0,0 L45,0 L76,5 L86,8 L86,12 L81,16 L74,16 L60,13 L38,10 L6,10 L-23,14 L-49,21 L-74,31 L-93,41 L-108,51 L-121,61 L-133,72 L-141,79 L-148,87 L-160,102 L-171,119 L-183,142 L-191,162 L-196,179 L-197,184 L-200,185 L-207,185 L-207,178 L-199,152 L-190,132 L-180,113 L-172,101 L-163,89 L-152,76 L-133,57 L-119,46 L-105,36 L-84,24 L-64,15 L-47,9 L-23,3 Z " fill="#680909" transform="translate(289,63)"/>
<path d="M0,0 L7,0 L21,5 L48,6 L63,8 L79,13 L88,19 L92,24 L94,28 L94,39 L89,51 L79,64 L70,73 L54,85 L33,97 L11,107 L-19,117 L-25,119 L-40,160 L-51,194 L-54,205 L-54,217 L-64,217 L-78,210 L-85,202 L-85,191 L-80,170 L-69,139 L-63,124 L-64,120 L-68,114 L-68,109 L-66,107 L-55,107 L-54,101 L-42,73 L-31,49 L-19,25 L-18,24 L-35,26 L-66,32 L-85,37 L-91,39 L-93,37 L-92,31 L-86,20 L-80,15 L-59,11 L-28,8 L-11,7 L-5,4 Z M0,5 L-4,10 L-7,11 L-37,13 L-68,17 L-81,21 L-86,29 L-87,33 L-71,29 L-50,24 L-18,19 L-11,18 L-14,25 L-22,40 L-35,68 L-53,110 L-63,111 L-62,115 L-58,119 L-59,125 L-70,155 L-77,177 L-81,191 L-81,199 L-78,204 L-67,211 L-65,212 L-59,212 L-56,196 L-48,170 L-37,138 L-29,116 L-24,113 L-15,111 L9,103 L29,94 L49,83 L65,71 L76,61 L85,49 L89,41 L89,28 L82,20 L70,15 L64,13 L41,10 L17,9 L6,5 Z " fill="#8A4412" transform="translate(137,251)"/>
<path d="M0,0 L8,0 L13,3 L17,9 L17,17 L6,35 L-6,54 L-21,76 L-33,92 L-42,102 L-45,104 L-50,103 L-52,100 L-52,91 L-46,70 L-36,47 L-25,26 L-16,14 L-8,5 Z " fill="#670908" transform="translate(514,297)"/>
<path d="M0,0 L22,0 L31,3 L40,9 L44,15 L44,25 L40,35 L35,41 L26,47 L18,50 L11,51 L-1,51 L-13,47 L-23,38 L-25,33 L-25,19 L-20,10 L-11,4 Z " fill="#D91818" transform="translate(376,107)"/>
<path d="M0,0 L10,0 L14,5 L17,13 L17,21 L6,29 L-5,39 L-13,46 L-23,56 L-31,63 L-38,70 L-45,78 L-54,87 L-60,94 L-64,96 L-66,97 L-64,93 L-56,84 L-65,82 L-68,79 L-79,91 L-88,104 L-91,109 L-91,116 L-89,124 L-87,125 L-89,128 L-92,127 L-96,115 L-95,106 L-88,95 L-80,85 L-69,73 L-60,63 L-37,40 L-29,33 L-22,26 L-14,19 L-3,9 L-2,6 L-18,9 L-39,14 L-51,18 L-53,18 L-51,12 L-47,6 L-43,4 L-15,1 Z M-67,97 Z " fill="#FBDC46" transform="translate(335,303)"/>
<path d="M0,0 L8,1 L18,6 L10,22 L-3,53 L-13,81 L-20,103 L-24,120 L-31,119 L-42,112 L-44,109 L-43,99 L-32,66 L-19,33 L-7,7 L-3,2 Z " fill="#FBDC45" transform="translate(237,314)"/>
<path d="M0,0 L5,2 L13,9 L20,19 L33,44 L43,68 L47,81 L50,95 L50,115 L48,125 L45,133 L38,139 L33,139 L29,135 L29,128 L31,120 L31,90 L28,78 L20,64 L12,51 L8,41 L8,18 L3,6 L0,2 Z " fill="#FEAD78" transform="translate(455,86)"/>
<path d="M0,0 L3,1 L-13,9 L-22,16 L-29,22 L-45,27 L-59,35 L-71,46 L-82,59 L-95,68 L-118,78 L-134,86 L-132,81 L-123,68 L-114,57 L-98,41 L-85,31 L-67,20 L-48,11 L-37,7 L-17,2 Z " fill="#B72020" transform="translate(296,125)"/>
<path d="M0,0 L18,0 L14,4 L6,10 L5,14 L21,26 L28,33 L33,42 L34,59 L40,75 L52,104 L55,118 L56,160 L60,168 L66,172 L78,172 L84,168 L90,156 L94,144 L95,144 L95,159 L92,167 L85,176 L79,180 L63,180 L55,176 L50,171 L47,167 L45,160 L44,115 L40,96 L34,81 L25,61 L23,55 L22,46 L18,38 L7,26 L-5,17 L-7,14 L-6,7 Z " fill="#D07333" transform="translate(419,57)"/>
<path d="M0,0 L2,1 L-5,8 L-13,15 L-29,31 L-36,39 L-46,50 L-59,67 L-63,75 L-97,75 L-91,67 L-58,34 L-50,27 L-36,15 L-30,11 L-28,11 L-25,2 L-21,2 L-17,5 L-11,5 Z " fill="#F9F5F5" transform="translate(389,323)"/>
<path d="M0,0 L30,0 L36,4 L44,12 L55,28 L64,38 L74,51 L86,72 L95,93 L101,112 L104,125 L105,135 L106,189 L107,194 L107,206 L103,215 L95,222 L92,224 L101,225 L101,226 L84,226 L74,230 L64,229 L56,224 L53,221 L53,218 L55,218 L55,216 L57,216 L62,222 L65,223 L78,223 L90,218 L96,214 L100,208 L99,134 L94,109 L87,89 L75,64 L63,46 L55,38 L44,23 L36,12 L29,6 L13,7 L11,6 L1,6 L-6,10 L-11,20 L-12,24 L-17,23 L-16,15 L-10,6 L-5,2 Z " fill="#8C4819" transform="translate(414,51)"/>
<path d="M0,0 L14,0 L24,4 L33,11 L39,20 L39,29 L34,36 L26,40 L23,41 L12,41 L0,36 L-6,31 L-12,21 L-12,12 L-8,6 L-2,1 Z " fill="#D81818" transform="translate(396,209)"/>
<path d="M0,0 L16,0 L28,4 L34,9 L36,13 L36,20 L33,27 L29,32 L19,37 L15,38 L2,38 L-8,34 L-15,26 L-16,24 L-16,13 L-12,7 L-7,3 Z " fill="#D81717" transform="translate(229,198)"/>
<path d="M0,0 L11,0 L22,5 L26,8 L25,13 L19,23 L6,54 L-4,81 L-14,112 L-15,116 L-16,129 L-21,130 L-30,127 L-40,121 L-45,116 L-46,114 L-46,107 L-42,96 L-39,85 L-36,77 L-25,47 L-13,20 L-5,5 Z M3,4 L-2,8 L-10,24 L-19,44 L-30,73 L-40,103 L-41,113 L-36,118 L-26,124 L-21,124 L-15,100 L-2,62 L10,33 L17,17 L21,10 L11,5 Z " fill="#894412" transform="translate(234,310)"/>
<path d="M0,0 L13,0 L23,5 L32,7 L57,7 L72,12 L80,14 L78,16 L65,17 L17,17 L-3,16 L-47,11 L-42,7 L-33,1 L-25,1 L-19,3 L-9,2 Z " fill="#B66127" transform="translate(377,256)"/>
<path d="M0,0 L8,0 L18,3 L22,7 L21,13 L16,23 L5,35 L-4,43 L-19,52 L-25,55 L-27,55 L-25,49 L-13,24 Z " fill="#F9F5F5" transform="translate(162,281)"/>
<path d="M0,0 L8,0 L13,3 L17,9 L17,17 L6,35 L-6,54 L-21,76 L-33,92 L-42,102 L-45,104 L-50,103 L-52,100 L-52,91 L-46,70 L-36,47 L-25,26 L-16,14 L-8,5 Z M0,5 L-9,12 L-20,27 L-29,43 L-39,64 L-46,85 L-47,89 L-47,99 L-42,97 L-27,77 L-13,57 L-3,41 L13,15 L12,10 L7,5 Z " fill="#8A4512" transform="translate(514,297)"/>
<path d="M0,0 L15,0 L26,2 L35,7 L40,13 L41,15 L41,25 L37,36 L31,46 L22,56 L8,67 L-7,76 L-22,83 L-36,88 L-41,88 L-40,81 L-24,46 L-9,16 Z M3,4 L-9,26 L-20,47 L-34,78 L-35,82 L-29,81 L-13,74 L0,67 L11,59 L21,50 L28,42 L35,30 L37,25 L37,17 L33,11 L24,6 L15,4 Z " fill="#8A4412" transform="translate(155,267)"/>
<path d="M0,0 L1,2 L-8,21 L-14,38 L-18,56 L-57,57 L-51,49 L-18,16 L-10,9 Z " fill="#FAF5F5" transform="translate(445,333)"/>
<path d="M0,0 L2,0 L1,5 L-11,40 L-17,63 L-18,65 L-23,64 L-32,57 L-32,50 L-25,24 L-18,4 L-17,3 L-3,1 Z " fill="#E49F05" transform="translate(92,394)"/>
<path d="M0,0 L10,0 L20,4 L25,10 L25,19 L20,24 L8,30 L5,31 L-8,31 L-13,28 L-16,25 L-17,22 L-17,11 L-13,6 L-6,2 Z " fill="#ECB77A" transform="translate(487,244)"/>
<path d="M0,0 L7,0 L18,4 L26,10 L30,16 L30,24 L24,31 L19,33 L8,33 L0,30 L-8,23 L-10,19 L-10,9 L-4,2 Z " fill="#D81717" transform="translate(317,172)"/>
<path d="M0,0 L13,0 L45,4 L65,5 L64,7 L51,9 L42,15 L36,23 L32,18 L26,13 L20,11 L2,12 L-32,15 L-37,15 L-35,9 L-34,2 L-33,1 L-18,1 L-16,2 L-5,2 Z " fill="#B82525" transform="translate(329,274)"/>
<path d="M0,0 L1,2 L-7,22 L-18,54 L-21,54 L-32,38 L-40,24 L-40,21 L-15,9 L-1,1 Z " fill="#B72121" transform="translate(196,350)"/>
<path d="M0,0 L3,1 L3,3 L12,6 L21,6 L19,11 L17,14 L17,24 L19,28 L18,32 L7,32 L3,31 L3,23 L-1,20 L-4,21 L-17,22 L-24,26 L-31,26 L-35,23 L-33,19 L-20,10 L-4,2 Z " fill="#FCC32A" transform="translate(192,209)"/>
<path d="M0,0 L1,0 L3,8 L7,12 L14,12 L23,8 L26,9 L19,16 L11,23 L-3,37 L-10,45 L-21,57 L-28,66 L-29,64 L-20,40 L-8,12 L-1,2 Z " fill="#F9F6F6" transform="translate(268,324)"/>
<path d="M0,0 L3,4 L10,24 L15,42 L18,59 L18,66 L10,70 L5,71 L-5,67 L0,56 Z " fill="#6A0B0B" transform="translate(526,204)"/>
<path d="M0,0 L5,4 L13,5 L7,13 L0,21 L-6,30 L-5,35 L-4,36 L7,35 L19,33 L32,33 L32,34 L-1,41 L-19,46 L-21,46 L-24,38 L-24,31 L-15,17 L-3,3 Z " fill="#E4A006" transform="translate(267,381)"/>
<path d="M0,0 L5,2 L14,4 L8,12 L-3,26 L-3,32 L-1,34 L8,33 L15,31 L31,31 L31,32 L0,39 L-14,43 L-19,43 L-21,38 L-21,28 L-15,18 L-7,8 Z " fill="#E4A006" transform="translate(361,375)"/>
<path d="M0,0 L22,0 L31,3 L40,9 L44,15 L44,25 L40,35 L35,41 L26,47 L18,50 L11,51 L-1,51 L-13,47 L-23,38 L-25,33 L-25,19 L-20,10 L-11,4 Z M4,2 L-7,5 L-15,10 L-18,13 L-20,19 L-20,29 L-17,36 L-10,42 L-1,45 L16,45 L31,40 L38,32 L40,26 L40,15 L33,7 L22,3 L18,2 Z " fill="#700F09" transform="translate(376,107)"/>
<path d="M0,0 L15,0 L12,10 L4,35 L0,50 L-5,49 L-13,43 L-12,34 L-1,1 Z " fill="#E4A006" transform="translate(210,380)"/>
<path d="M0,0 L9,0 L17,4 L21,9 L23,13 L23,20 L20,26 L19,27 L13,27 L9,25 L8,29 L0,28 L-4,25 L-3,16 L-7,11 L-6,5 Z " fill="#8C6D49" transform="translate(355,216)"/>
<path d="M0,0 L12,0 L21,6 L23,10 L23,19 L19,23 L10,24 L6,29 L1,27 L-4,23 L-4,17 L-9,13 L-8,7 L-3,2 Z " fill="#AF9165" transform="translate(264,167)"/>
<path d="M0,0 L9,0 L15,5 L16,7 L16,14 L12,22 L6,27 L1,29 L-7,29 L-12,25 L-13,23 L-13,14 L-8,6 L-2,1 Z " fill="#FCDD46" transform="translate(260,263)"/>
<path d="M0,0 L16,1 L12,14 L10,23 L10,37 L14,41 L20,41 L28,34 L28,37 L21,44 L14,44 L4,40 L-4,34 L-6,31 L-6,17 L-1,1 Z " fill="#E4A006" transform="translate(450,364)"/>
<path d="M0,0 L9,0 L21,2 L60,5 L113,6 L121,8 L119,10 L106,11 L58,11 L38,10 L-6,5 L-1,1 Z " fill="#8A4515" transform="translate(336,262)"/>
<path d="M0,0 L15,0 L5,31 L2,44 L-2,43 L-11,37 L-10,28 L-1,1 Z " fill="#E4A006" transform="translate(519,359)"/>
<path d="M0,0 L6,0 L8,2 L8,9 L4,10 L3,15 L-3,20 L-6,28 L-7,29 L-14,29 L-19,27 L-23,17 L-23,12 L-19,8 L-6,4 Z " fill="#51250A" transform="translate(389,179)"/>
<path d="M0,0 L3,4 L9,12 L15,17 L19,19 L32,20 L34,24 L34,29 L30,31 L17,31 L7,26 L-3,17 L-9,8 Z " fill="#55500B" transform="translate(346,145)"/>
<path d="M0,0 L7,0 L14,3 L18,8 L19,10 L19,21 L15,29 L7,36 L-1,39 L-8,39 L-16,34 L-19,27 L-19,19 L-14,9 L-7,3 Z M-1,5 L-7,9 L-12,15 L-14,19 L-14,28 L-10,33 L-8,34 L0,34 L8,30 L13,24 L15,19 L15,12 L10,6 L8,5 Z " fill="#884111" transform="translate(261,258)"/>
<path d="M0,0 L14,0 L24,4 L33,11 L39,20 L39,29 L34,36 L26,40 L23,41 L12,41 L0,36 L-6,31 L-12,21 L-12,12 L-8,6 L-2,1 Z M1,2 L-4,7 L-7,12 L-7,22 L0,30 L10,36 L17,38 L25,38 L31,35 L36,29 L37,27 L37,21 L31,12 L23,6 L12,2 Z " fill="#741406" transform="translate(396,209)"/>
<path d="M0,0 L11,0 L17,4 L18,5 L18,12 L14,16 L5,19 L-2,19 L-10,13 L-9,8 L-4,2 Z " fill="#FDE8D2" transform="translate(486,250)"/>
<path d="M0,0 L16,0 L28,4 L34,9 L36,13 L36,20 L33,27 L29,32 L19,37 L15,38 L2,38 L-8,34 L-15,26 L-16,24 L-16,13 L-12,7 L-7,3 Z M2,2 L-5,4 L-11,9 L-12,15 L-12,23 L-6,30 L5,34 L18,34 L25,32 L32,24 L33,22 L33,13 L27,6 L16,2 Z " fill="#78140A" transform="translate(229,198)"/>
<path d="M0,0 L6,0 L6,2 L11,3 L13,5 L21,7 L24,9 L23,14 L22,16 L16,16 L15,17 L6,17 L3,19 L-2,18 L-6,13 L-5,7 L-1,1 Z " fill="#612F16" transform="translate(300,146)"/>
<path d="M0,0 L7,1 L12,13 L16,19 L15,24 L9,25 L8,21 L3,21 L0,18 L0,16 L-6,16 L-9,14 L-9,4 L-6,2 Z " fill="#4E2008" transform="translate(303,224)"/>
<path d="M0,0 L2,1 L-15,18 L-24,29 L-34,41 L-40,50 L-53,50 L-47,43 L-23,19 L-15,12 L-3,2 Z " fill="#BB2C2C" transform="translate(361,341)"/>
<path d="M0,0 L1,0 L2,15 L5,21 L11,26 L16,27 L34,27 L45,23 L51,19 L56,16 L54,21 L48,28 L33,33 L16,33 L5,29 L-1,23 L-3,17 L-3,7 Z " fill="#B51D1D" transform="translate(359,119)"/>
<path d="M0,0 L9,1 L13,0 L16,5 L16,9 L14,9 L16,12 L16,17 L10,20 L3,19 L-3,14 L-4,12 L-4,4 Z " fill="#8A6A3C" transform="translate(324,126)"/>
<path d="M0,0 L9,1 L14,0 L17,5 L16,10 L17,16 L14,19 L4,19 L-1,15 L-3,11 L-3,4 Z " fill="#7A5C32" transform="translate(406,176)"/>
<path d="M0,0 L9,0 L9,18 L13,25 L16,27 L14,33 L11,34 L3,27 L-1,17 L-1,1 Z " fill="#595109" transform="translate(328,213)"/>
<path d="M0,0 L12,0 L21,6 L23,10 L23,19 L19,23 L10,24 L6,29 L1,27 L-4,23 L-4,17 L-9,13 L-8,7 L-3,2 Z M3,1 L-3,4 L-7,8 L-7,13 L-4,14 L-2,11 L6,10 L3,17 L0,22 L2,24 L5,24 L10,14 L13,15 L14,21 L19,21 L22,17 L21,9 L13,2 Z " fill="#71532B" transform="translate(264,167)"/>
<path d="M0,0 L4,1 L9,7 L10,10 L10,25 L6,36 L-3,33 L0,24 L1,22 L1,12 L-3,6 L-3,3 Z " fill="#58520C" transform="translate(424,136)"/>
<path d="M0,0 L8,4 L6,8 L1,17 L1,26 L3,33 L-3,37 L-7,32 L-8,29 L-8,15 L-1,1 Z " fill="#56500A" transform="translate(277,204)"/>
<path d="M0,0 L10,0 L17,4 L19,6 L19,13 L17,17 L15,17 L12,13 L9,13 L5,23 L1,22 L3,16 L6,9 L-2,10 L-3,12 L-5,10 L-5,4 Z " fill="#BC9E70" transform="translate(355,218)"/>
<path d="M0,0 L5,0 L-4,21 L-9,32 L-10,32 L-12,21 L-12,3 Z " fill="#6C0F0F" transform="translate(88,295)"/>
<path d="M0,0 L7,1 L10,2 L9,7 L3,16 L-9,28 L-16,32 L-14,27 L-3,5 Z " fill="#B82525" transform="translate(166,288)"/>
<path d="M0,0 L10,2 L19,2 L22,8 L21,12 L17,17 L11,18 L4,11 L-1,8 L-3,6 L-2,2 Z " fill="#5A2A0D" transform="translate(425,198)"/>
<path d="M0,0 L11,0 L17,3 L15,7 L9,14 L7,18 L5,18 L0,11 L-12,4 L-18,2 L-18,1 Z " fill="#CA7701" transform="translate(230,254)"/>
<path d="M0,0 L7,0 L18,4 L26,10 L30,16 L30,24 L24,31 L19,33 L8,33 L0,30 L-8,23 L-10,19 L-10,9 L-4,2 Z M2,2 L-3,4 L-7,11 L-7,17 L-3,23 L6,29 L12,31 L20,31 L26,27 L28,24 L28,16 L21,8 L15,4 L9,2 Z " fill="#881910" transform="translate(317,172)"/>
<path d="M0,0 L12,0 L19,3 L31,12 L30,14 L12,16 L11,23 L10,23 L9,12 L4,4 Z " fill="#B66127" transform="translate(278,254)"/>
<path d="M0,0 L2,0 L0,5 L-12,25 L-32,55 L-33,53 L-21,28 L-11,12 Z " fill="#F5EFEF" transform="translate(516,311)"/>
<path d="M0,0 L10,0 L20,4 L25,10 L25,19 L20,24 L8,30 L5,31 L-8,31 L-13,28 L-16,25 L-17,22 L-17,11 L-13,6 L-6,2 Z M1,2 L-7,5 L-13,10 L-16,15 L-16,21 L-12,25 L-5,29 L3,29 L15,25 L20,22 L22,19 L22,10 L18,5 L9,2 Z " fill="#E5904F" transform="translate(487,244)"/>
<path d="M0,0 L2,2 L8,30 L9,42 L3,41 L-5,38 L0,27 Z " fill="#D91C1C" transform="translate(526,233)"/>
<path d="M0,0 L15,0 L15,15 L0,15 Z " fill="#FFFFFF" transform="translate(0,0)"/>
<path d="M0,0 L4,2 L7,4 L6,13 L4,15 L-14,14 L-15,13 L-15,8 L-10,7 L-10,5 L-3,3 Z " fill="#622C17" transform="translate(189,228)"/>
<path d="M0,0 L15,0 L15,14 L0,14 Z " fill="#FFFFFF" transform="translate(0,571)"/>
<path d="M0,0 L15,0 L15,14 L0,14 Z " fill="#FFFFFF" transform="translate(0,541)"/>
<path d="M0,0 L15,0 L15,14 L0,14 Z " fill="#FFFFFF" transform="translate(0,511)"/>
<path d="M0,0 L15,0 L15,14 L0,14 Z " fill="#FFFFFF" transform="translate(0,481)"/>
<path d="M0,0 L15,0 L15,14 L0,14 Z " fill="#FFFFFF" transform="translate(0,451)"/>
<path d="M0,0 L15,0 L15,14 L0,14 Z " fill="#FFFFFF" transform="translate(0,421)"/>
<path d="M0,0 L15,0 L15,14 L0,14 Z " fill="#FFFFFF" transform="translate(0,391)"/>
<path d="M0,0 L15,0 L15,14 L0,14 Z " fill="#FFFFFF" transform="translate(0,361)"/>
<path d="M0,0 L15,0 L15,14 L0,14 Z " fill="#FFFFFF" transform="translate(0,331)"/>
<path d="M0,0 L15,0 L15,14 L0,14 Z " fill="#FFFFFF" transform="translate(0,301)"/>
<path d="M0,0 L15,0 L15,14 L0,14 Z " fill="#FFFFFF" transform="translate(0,271)"/>
<path d="M0,0 L15,0 L15,14 L0,14 Z " fill="#FFFFFF" transform="translate(0,241)"/>
<path d="M0,0 L15,0 L15,14 L0,14 Z " fill="#FFFFFF" transform="translate(0,211)"/>
<path d="M0,0 L15,0 L15,14 L0,14 Z " fill="#FFFFFF" transform="translate(0,181)"/>
<path d="M0,0 L15,0 L15,14 L0,14 Z " fill="#FFFFFF" transform="translate(0,151)"/>
<path d="M0,0 L15,0 L15,14 L0,14 Z " fill="#FFFFFF" transform="translate(0,121)"/>
<path d="M0,0 L15,0 L15,14 L0,14 Z " fill="#FFFFFF" transform="translate(0,91)"/>
<path d="M0,0 L15,0 L15,14 L0,14 Z " fill="#FFFFFF" transform="translate(0,61)"/>
<path d="M0,0 L15,0 L15,14 L0,14 Z " fill="#FFFFFF" transform="translate(0,31)"/>
<path d="M0,0 L14,0 L14,15 L0,15 Z " fill="#FFFFFF" transform="translate(571,0)"/>
<path d="M0,0 L14,0 L14,15 L0,15 Z " fill="#FFFFFF" transform="translate(541,0)"/>
<path d="M0,0 L14,0 L14,15 L0,15 Z " fill="#FFFFFF" transform="translate(511,0)"/>
<path d="M0,0 L14,0 L14,15 L0,15 Z " fill="#FFFFFF" transform="translate(481,0)"/>
<path d="M0,0 L14,0 L14,15 L0,15 Z " fill="#FFFFFF" transform="translate(451,0)"/>
<path d="M0,0 L14,0 L14,15 L0,15 Z " fill="#FFFFFF" transform="translate(421,0)"/>
<path d="M0,0 L14,0 L14,15 L0,15 Z " fill="#FFFFFF" transform="translate(391,0)"/>
<path d="M0,0 L14,0 L14,15 L0,15 Z " fill="#FFFFFF" transform="translate(361,0)"/>
<path d="M0,0 L14,0 L14,15 L0,15 Z " fill="#FFFFFF" transform="translate(331,0)"/>
<path d="M0,0 L14,0 L14,15 L0,15 Z " fill="#FFFFFF" transform="translate(301,0)"/>
<path d="M0,0 L14,0 L14,15 L0,15 Z " fill="#FFFFFF" transform="translate(271,0)"/>
<path d="M0,0 L14,0 L14,15 L0,15 Z " fill="#FFFFFF" transform="translate(241,0)"/>
<path d="M0,0 L14,0 L14,15 L0,15 Z " fill="#FFFFFF" transform="translate(211,0)"/>
<path d="M0,0 L14,0 L14,15 L0,15 Z " fill="#FFFFFF" transform="translate(181,0)"/>
<path d="M0,0 L14,0 L14,15 L0,15 Z " fill="#FFFFFF" transform="translate(151,0)"/>
<path d="M0,0 L14,0 L14,15 L0,15 Z " fill="#FFFFFF" transform="translate(121,0)"/>
<path d="M0,0 L14,0 L14,15 L0,15 Z " fill="#FFFFFF" transform="translate(91,0)"/>
<path d="M0,0 L14,0 L14,15 L0,15 Z " fill="#FFFFFF" transform="translate(61,0)"/>
<path d="M0,0 L14,0 L14,15 L0,15 Z " fill="#FFFFFF" transform="translate(31,0)"/>
<path d="M0,0 L4,4 L11,12 L19,17 L31,18 L30,23 L19,23 L9,18 L2,12 L-3,6 L-2,2 Z " fill="#6F6C15" transform="translate(345,150)"/>
<path d="M0,0 L1,4 L1,12 L4,18 L8,21 L13,22 L27,22 L36,19 L40,17 L38,21 L32,26 L27,27 L14,27 L3,23 L-3,16 L-3,8 L-1,1 Z " fill="#B51D1D" transform="translate(220,205)"/>
<path d="M0,0 L14,0 L14,14 L0,14 Z " fill="#FFFFFF" transform="translate(586,586)"/>
<path d="M0,0 L14,0 L14,14 L0,14 Z " fill="#FFFFFF" transform="translate(556,586)"/>
<path d="M0,0 L14,0 L14,14 L0,14 Z " fill="#FFFFFF" transform="translate(526,586)"/>
<path d="M0,0 L14,0 L14,14 L0,14 Z " fill="#FFFFFF" transform="translate(496,586)"/>
<path d="M0,0 L14,0 L14,14 L0,14 Z " fill="#FFFFFF" transform="translate(466,586)"/>
<path d="M0,0 L14,0 L14,14 L0,14 Z " fill="#FFFFFF" transform="translate(436,586)"/>
<path d="M0,0 L14,0 L14,14 L0,14 Z " fill="#FFFFFF" transform="translate(406,586)"/>
<path d="M0,0 L14,0 L14,14 L0,14 Z " fill="#FFFFFF" transform="translate(376,586)"/>
<path d="M0,0 L14,0 L14,14 L0,14 Z " fill="#FFFFFF" transform="translate(346,586)"/>
<path d="M0,0 L14,0 L14,14 L0,14 Z " fill="#FFFFFF" transform="translate(316,586)"/>
<path d="M0,0 L14,0 L14,14 L0,14 Z " fill="#FFFFFF" transform="translate(286,586)"/>
<path d="M0,0 L14,0 L14,14 L0,14 Z " fill="#FFFFFF" transform="translate(256,586)"/>
<path d="M0,0 L14,0 L14,14 L0,14 Z " fill="#FFFFFF" transform="translate(226,586)"/>
<path d="M0,0 L14,0 L14,14 L0,14 Z " fill="#FFFFFF" transform="translate(196,586)"/>
<path d="M0,0 L14,0 L14,14 L0,14 Z " fill="#FFFFFF" transform="translate(166,586)"/>
<path d="M0,0 L14,0 L14,14 L0,14 Z " fill="#FFFFFF" transform="translate(136,586)"/>
<path d="M0,0 L14,0 L14,14 L0,14 Z " fill="#FFFFFF" transform="translate(106,586)"/>
<path d="M0,0 L14,0 L14,14 L0,14 Z " fill="#FFFFFF" transform="translate(76,586)"/>
<path d="M0,0 L14,0 L14,14 L0,14 Z " fill="#FFFFFF" transform="translate(46,586)"/>
<path d="M0,0 L14,0 L14,14 L0,14 Z " fill="#FFFFFF" transform="translate(16,586)"/>
<path d="M0,0 L14,0 L14,14 L0,14 Z " fill="#FFFFFF" transform="translate(571,571)"/>
<path d="M0,0 L14,0 L14,14 L0,14 Z " fill="#FFFFFF" transform="translate(541,571)"/>
<path d="M0,0 L14,0 L14,14 L0,14 Z " fill="#FFFFFF" transform="translate(511,571)"/>
<path d="M0,0 L14,0 L14,14 L0,14 Z " fill="#FFFFFF" transform="translate(481,571)"/>
<path d="M0,0 L14,0 L14,14 L0,14 Z " fill="#FFFFFF" transform="translate(451,571)"/>
<path d="M0,0 L14,0 L14,14 L0,14 Z " fill="#FFFFFF" transform="translate(421,571)"/>
<path d="M0,0 L14,0 L14,14 L0,14 Z " fill="#FFFFFF" transform="translate(391,571)"/>
<path d="M0,0 L14,0 L14,14 L0,14 Z " fill="#FFFFFF" transform="translate(361,571)"/>
<path d="M0,0 L14,0 L14,14 L0,14 Z " fill="#FFFFFF" transform="translate(331,571)"/>
<path d="M0,0 L14,0 L14,14 L0,14 Z " fill="#FFFFFF" transform="translate(301,571)"/>
<path d="M0,0 L14,0 L14,14 L0,14 Z " fill="#FFFFFF" transform="translate(271,571)"/>
<path d="M0,0 L14,0 L14,14 L0,14 Z " fill="#FFFFFF" transform="translate(241,571)"/>
<path d="M0,0 L14,0 L14,14 L0,14 Z " fill="#FFFFFF" transform="translate(211,571)"/>
<path d="M0,0 L14,0 L14,14 L0,14 Z " fill="#FFFFFF" transform="translate(181,571)"/>
<path d="M0,0 L14,0 L14,14 L0,14 Z " fill="#FFFFFF" transform="translate(151,571)"/>
<path d="M0,0 L14,0 L14,14 L0,14 Z " fill="#FFFFFF" transform="translate(121,571)"/>
<path d="M0,0 L14,0 L14,14 L0,14 Z " fill="#FFFFFF" transform="translate(91,571)"/>
<path d="M0,0 L14,0 L14,14 L0,14 Z " fill="#FFFFFF" transform="translate(61,571)"/>
<path d="M0,0 L14,0 L14,14 L0,14 Z " fill="#FFFFFF" transform="translate(31,571)"/>
<path d="M0,0 L14,0 L14,14 L0,14 Z " fill="#FFFFFF" transform="translate(586,556)"/>
<path d="M0,0 L14,0 L14,14 L0,14 Z " fill="#FFFFFF" transform="translate(556,556)"/>
<path d="M0,0 L14,0 L14,14 L0,14 Z " fill="#FFFFFF" transform="translate(526,556)"/>
<path d="M0,0 L14,0 L14,14 L0,14 Z " fill="#FFFFFF" transform="translate(496,556)"/>
<path d="M0,0 L14,0 L14,14 L0,14 Z " fill="#FFFFFF" transform="translate(466,556)"/>
<path d="M0,0 L14,0 L14,14 L0,14 Z " fill="#FFFFFF" transform="translate(436,556)"/>
<path d="M0,0 L14,0 L14,14 L0,14 Z " fill="#FFFFFF" transform="translate(406,556)"/>
<path d="M0,0 L14,0 L14,14 L0,14 Z " fill="#FFFFFF" transform="translate(376,556)"/>
<path d="M0,0 L14,0 L14,14 L0,14 Z " fill="#FFFFFF" transform="translate(346,556)"/>
<path d="M0,0 L14,0 L14,14 L0,14 Z " fill="#FFFFFF" transform="translate(316,556)"/>
<path d="M0,0 L14,0 L14,14 L0,14 Z " fill="#FFFFFF" transform="translate(286,556)"/>
<path d="M0,0 L14,0 L14,14 L0,14 Z " fill="#FFFFFF" transform="translate(256,556)"/>
<path d="M0,0 L14,0 L14,14 L0,14 Z " fill="#FFFFFF" transform="translate(226,556)"/>
<path d="M0,0 L14,0 L14,14 L0,14 Z " fill="#FFFFFF" transform="translate(196,556)"/>
<path d="M0,0 L14,0 L14,14 L0,14 Z " fill="#FFFFFF" transform="translate(166,556)"/>
<path d="M0,0 L14,0 L14,14 L0,14 Z " fill="#FFFFFF" transform="translate(136,556)"/>
<path d="M0,0 L14,0 L14,14 L0,14 Z " fill="#FFFFFF" transform="translate(106,556)"/>
<path d="M0,0 L14,0 L14,14 L0,14 Z " fill="#FFFFFF" transform="translate(76,556)"/>
<path d="M0,0 L14,0 L14,14 L0,14 Z " fill="#FFFFFF" transform="translate(46,556)"/>
<path d="M0,0 L14,0 L14,14 L0,14 Z " fill="#FFFFFF" transform="translate(16,556)"/>
<path d="M0,0 L14,0 L14,14 L0,14 Z " fill="#FFFFFF" transform="translate(571,541)"/>
<path d="M0,0 L14,0 L14,14 L0,14 Z " fill="#FFFFFF" transform="translate(541,541)"/>
<path d="M0,0 L14,0 L14,14 L0,14 Z " fill="#FFFFFF" transform="translate(511,541)"/>
<path d="M0,0 L14,0 L14,14 L0,14 Z " fill="#FFFFFF" transform="translate(481,541)"/>
<path d="M0,0 L14,0 L14,14 L0,14 Z " fill="#FFFFFF" transform="translate(451,541)"/>
<path d="M0,0 L14,0 L14,14 L0,14 Z " fill="#FFFFFF" transform="translate(421,541)"/>
<path d="M0,0 L14,0 L14,14 L0,14 Z " fill="#FFFFFF" transform="translate(391,541)"/>
<path d="M0,0 L14,0 L14,14 L0,14 Z " fill="#FFFFFF" transform="translate(361,541)"/>
<path d="M0,0 L14,0 L14,14 L0,14 Z " fill="#FFFFFF" transform="translate(331,541)"/>
<path d="M0,0 L14,0 L14,14 L0,14 Z " fill="#FFFFFF" transform="translate(301,541)"/>
<path d="M0,0 L14,0 L14,14 L0,14 Z " fill="#FFFFFF" transform="translate(271,541)"/>
<path d="M0,0 L14,0 L14,14 L0,14 Z " fill="#FFFFFF" transform="translate(241,541)"/>
<path d="M0,0 L14,0 L14,14 L0,14 Z " fill="#FFFFFF" transform="translate(211,541)"/>
<path d="M0,0 L14,0 L14,14 L0,14 Z " fill="#FFFFFF" transform="translate(181,541)"/>
<path d="M0,0 L14,0 L14,14 L0,14 Z " fill="#FFFFFF" transform="translate(151,541)"/>
<path d="M0,0 L14,0 L14,14 L0,14 Z " fill="#FFFFFF" transform="translate(121,541)"/>
<path d="M0,0 L14,0 L14,14 L0,14 Z " fill="#FFFFFF" transform="translate(91,541)"/>
<path d="M0,0 L14,0 L14,14 L0,14 Z " fill="#FFFFFF" transform="translate(61,541)"/>
<path d="M0,0 L14,0 L14,14 L0,14 Z " fill="#FFFFFF" transform="translate(31,541)"/>
<path d="M0,0 L14,0 L14,14 L0,14 Z " fill="#FFFFFF" transform="translate(586,526)"/>
<path d="M0,0 L14,0 L14,14 L0,14 Z " fill="#FFFFFF" transform="translate(556,526)"/>
<path d="M0,0 L14,0 L14,14 L0,14 Z " fill="#FFFFFF" transform="translate(526,526)"/>
<path d="M0,0 L14,0 L14,14 L0,14 Z " fill="#FFFFFF" transform="translate(496,526)"/>
<path d="M0,0 L14,0 L14,14 L0,14 Z " fill="#FFFFFF" transform="translate(466,526)"/>
<path d="M0,0 L14,0 L14,14 L0,14 Z " fill="#FFFFFF" transform="translate(436,526)"/>
<path d="M0,0 L14,0 L14,14 L0,14 Z " fill="#FFFFFF" transform="translate(406,526)"/>
<path d="M0,0 L14,0 L14,14 L0,14 Z " fill="#FFFFFF" transform="translate(376,526)"/>
<path d="M0,0 L14,0 L14,14 L0,14 Z " fill="#FFFFFF" transform="translate(226,526)"/>
<path d="M0,0 L14,0 L14,14 L0,14 Z " fill="#FFFFFF" transform="translate(196,526)"/>
<path d="M0,0 L14,0 L14,14 L0,14 Z " fill="#FFFFFF" transform="translate(166,526)"/>
<path d="M0,0 L14,0 L14,14 L0,14 Z " fill="#FFFFFF" transform="translate(136,526)"/>
<path d="M0,0 L14,0 L14,14 L0,14 Z " fill="#FFFFFF" transform="translate(106,526)"/>
<path d="M0,0 L14,0 L14,14 L0,14 Z " fill="#FFFFFF" transform="translate(76,526)"/>
<path d="M0,0 L14,0 L14,14 L0,14 Z " fill="#FFFFFF" transform="translate(46,526)"/>
<path d="M0,0 L14,0 L14,14 L0,14 Z " fill="#FFFFFF" transform="translate(16,526)"/>
<path d="M0,0 L14,0 L14,14 L0,14 Z " fill="#FFFFFF" transform="translate(571,511)"/>
<path d="M0,0 L14,0 L14,14 L0,14 Z " fill="#FFFFFF" transform="translate(541,511)"/>
<path d="M0,0 L14,0 L14,14 L0,14 Z " fill="#FFFFFF" transform="translate(511,511)"/>
<path d="M0,0 L14,0 L14,14 L0,14 Z " fill="#FFFFFF" transform="translate(481,511)"/>
<path d="M0,0 L14,0 L14,14 L0,14 Z " fill="#FFFFFF" transform="translate(451,511)"/>
<path d="M0,0 L14,0 L14,14 L0,14 Z " fill="#FFFFFF" transform="translate(421,511)"/>
<path d="M0,0 L14,0 L14,14 L0,14 Z " fill="#FFFFFF" transform="translate(181,511)"/>
<path d="M0,0 L14,0 L14,14 L0,14 Z " fill="#FFFFFF" transform="translate(151,511)"/>
<path d="M0,0 L14,0 L14,14 L0,14 Z " fill="#FFFFFF" transform="translate(121,511)"/>
<path d="M0,0 L14,0 L14,14 L0,14 Z " fill="#FFFFFF" transform="translate(91,511)"/>
<path d="M0,0 L14,0 L14,14 L0,14 Z " fill="#FFFFFF" transform="translate(61,511)"/>
<path d="M0,0 L14,0 L14,14 L0,14 Z " fill="#FFFFFF" transform="translate(31,511)"/>
<path d="M0,0 L14,0 L14,14 L0,14 Z " fill="#FFFFFF" transform="translate(586,496)"/>
<path d="M0,0 L14,0 L14,14 L0,14 Z " fill="#FFFFFF" transform="translate(556,496)"/>
<path d="M0,0 L14,0 L14,14 L0,14 Z " fill="#FFFFFF" transform="translate(526,496)"/>
<path d="M0,0 L14,0 L14,14 L0,14 Z " fill="#FFFFFF" transform="translate(496,496)"/>
<path d="M0,0 L14,0 L14,14 L0,14 Z " fill="#FFFFFF" transform="translate(466,496)"/>
<path d="M0,0 L14,0 L14,14 L0,14 Z " fill="#FFFFFF" transform="translate(436,496)"/>
<path d="M0,0 L14,0 L14,14 L0,14 Z " fill="#FFFFFF" transform="translate(166,496)"/>
<path d="M0,0 L14,0 L14,14 L0,14 Z " fill="#FFFFFF" transform="translate(136,496)"/>
<path d="M0,0 L14,0 L14,14 L0,14 Z " fill="#FFFFFF" transform="translate(106,496)"/>
<path d="M0,0 L14,0 L14,14 L0,14 Z " fill="#FFFFFF" transform="translate(76,496)"/>
<path d="M0,0 L14,0 L14,14 L0,14 Z " fill="#FFFFFF" transform="translate(46,496)"/>
<path d="M0,0 L14,0 L14,14 L0,14 Z " fill="#FFFFFF" transform="translate(16,496)"/>
<path d="M0,0 L14,0 L14,14 L0,14 Z " fill="#FFFFFF" transform="translate(571,481)"/>
<path d="M0,0 L14,0 L14,14 L0,14 Z " fill="#FFFFFF" transform="translate(541,481)"/>
<path d="M0,0 L14,0 L14,14 L0,14 Z " fill="#FFFFFF" transform="translate(511,481)"/>
<path d="M0,0 L14,0 L14,14 L0,14 Z " fill="#FFFFFF" transform="translate(481,481)"/>
<path d="M0,0 L14,0 L14,14 L0,14 Z " fill="#FFFFFF" transform="translate(151,481)"/>
<path d="M0,0 L14,0 L14,14 L0,14 Z " fill="#FFFFFF" transform="translate(121,481)"/>
<path d="M0,0 L14,0 L14,14 L0,14 Z " fill="#FFFFFF" transform="translate(31,481)"/>
<path d="M0,0 L14,0 L14,14 L0,14 Z " fill="#FFFFFF" transform="translate(586,466)"/>
<path d="M0,0 L14,0 L14,14 L0,14 Z " fill="#FFFFFF" transform="translate(556,466)"/>
<path d="M0,0 L14,0 L14,14 L0,14 Z " fill="#FFFFFF" transform="translate(526,466)"/>
<path d="M0,0 L14,0 L14,14 L0,14 Z " fill="#FFFFFF" transform="translate(496,466)"/>
<path d="M0,0 L14,0 L14,14 L0,14 Z " fill="#FFFFFF" transform="translate(106,466)"/>
<path d="M0,0 L14,0 L14,14 L0,14 Z " fill="#FFFFFF" transform="translate(16,466)"/>
<path d="M0,0 L14,0 L14,14 L0,14 Z " fill="#FFFFFF" transform="translate(571,451)"/>
<path d="M0,0 L14,0 L14,14 L0,14 Z " fill="#FFFFFF" transform="translate(541,451)"/>
<path d="M0,0 L14,0 L14,14 L0,14 Z " fill="#FFFFFF" transform="translate(511,451)"/>
<path d="M0,0 L14,0 L14,14 L0,14 Z " fill="#FFFFFF" transform="translate(586,436)"/>
<path d="M0,0 L14,0 L14,14 L0,14 Z " fill="#FFFFFF" transform="translate(556,436)"/>
<path d="M0,0 L14,0 L14,14 L0,14 Z " fill="#FFFFFF" transform="translate(526,436)"/>
<path d="M0,0 L14,0 L14,14 L0,14 Z " fill="#FFFFFF" transform="translate(106,436)"/>
<path d="M0,0 L14,0 L14,14 L0,14 Z " fill="#FFFFFF" transform="translate(16,436)"/>
<path d="M0,0 L14,0 L14,14 L0,14 Z " fill="#FFFFFF" transform="translate(571,421)"/>
<path d="M0,0 L14,0 L14,14 L0,14 Z " fill="#FFFFFF" transform="translate(586,406)"/>
<path d="M0,0 L14,0 L14,14 L0,14 Z " fill="#FFFFFF" transform="translate(556,406)"/>
<path d="M0,0 L14,0 L14,14 L0,14 Z " fill="#FFFFFF" transform="translate(16,406)"/>
<path d="M0,0 L14,0 L14,14 L0,14 Z " fill="#FFFFFF" transform="translate(571,391)"/>
<path d="M0,0 L14,0 L14,14 L0,14 Z " fill="#FFFFFF" transform="translate(31,391)"/>
<path d="M0,0 L14,0 L14,14 L0,14 Z " fill="#FFFFFF" transform="translate(586,376)"/>
<path d="M0,0 L14,0 L14,14 L0,14 Z " fill="#FFFFFF" transform="translate(556,376)"/>
<path d="M0,0 L14,0 L14,14 L0,14 Z " fill="#FFFFFF" transform="translate(16,376)"/>
<path d="M0,0 L14,0 L14,14 L0,14 Z " fill="#FFFFFF" transform="translate(571,361)"/>
<path d="M0,0 L14,0 L14,14 L0,14 Z " fill="#FFFFFF" transform="translate(31,361)"/>
<path d="M0,0 L14,0 L14,14 L0,14 Z " fill="#FFFFFF" transform="translate(586,346)"/>
<path d="M0,0 L14,0 L14,14 L0,14 Z " fill="#FFFFFF" transform="translate(16,346)"/>
<path d="M0,0 L14,0 L14,14 L0,14 Z " fill="#FFFFFF" transform="translate(571,331)"/>
<path d="M0,0 L14,0 L14,14 L0,14 Z " fill="#FFFFFF" transform="translate(31,331)"/>
<path d="M0,0 L14,0 L14,14 L0,14 Z " fill="#FFFFFF" transform="translate(586,316)"/>
<path d="M0,0 L14,0 L14,14 L0,14 Z " fill="#FFFFFF" transform="translate(46,316)"/>
<path d="M0,0 L14,0 L14,14 L0,14 Z " fill="#FFFFFF" transform="translate(16,316)"/>
<path d="M0,0 L14,0 L14,14 L0,14 Z " fill="#FFFFFF" transform="translate(586,256)"/>
<path d="M0,0 L14,0 L14,14 L0,14 Z " fill="#FFFFFF" transform="translate(16,256)"/>
<path d="M0,0 L14,0 L14,14 L0,14 Z " fill="#FFFFFF" transform="translate(571,241)"/>
<path d="M0,0 L14,0 L14,14 L0,14 Z " fill="#FFFFFF" transform="translate(31,241)"/>
<path d="M0,0 L14,0 L14,14 L0,14 Z " fill="#FFFFFF" transform="translate(586,226)"/>
<path d="M0,0 L14,0 L14,14 L0,14 Z " fill="#FFFFFF" transform="translate(556,226)"/>
<path d="M0,0 L14,0 L14,14 L0,14 Z " fill="#FFFFFF" transform="translate(46,226)"/>
<path d="M0,0 L14,0 L14,14 L0,14 Z " fill="#FFFFFF" transform="translate(16,226)"/>
<path d="M0,0 L14,0 L14,14 L0,14 Z " fill="#FFFFFF" transform="translate(571,211)"/>
<path d="M0,0 L14,0 L14,14 L0,14 Z " fill="#FFFFFF" transform="translate(541,211)"/>
<path d="M0,0 L14,0 L14,14 L0,14 Z " fill="#FFFFFF" transform="translate(61,211)"/>
<path d="M0,0 L14,0 L14,14 L0,14 Z " fill="#FFFFFF" transform="translate(31,211)"/>
<path d="M0,0 L14,0 L14,14 L0,14 Z " fill="#FFFFFF" transform="translate(586,196)"/>
<path d="M0,0 L14,0 L14,14 L0,14 Z " fill="#FFFFFF" transform="translate(556,196)"/>
<path d="M0,0 L14,0 L14,14 L0,14 Z " fill="#FFFFFF" transform="translate(76,196)"/>
<path d="M0,0 L14,0 L14,14 L0,14 Z " fill="#FFFFFF" transform="translate(46,196)"/>
<path d="M0,0 L14,0 L14,14 L0,14 Z " fill="#FFFFFF" transform="translate(16,196)"/>
<path d="M0,0 L14,0 L14,14 L0,14 Z " fill="#FFFFFF" transform="translate(571,181)"/>
<path d="M0,0 L14,0 L14,14 L0,14 Z " fill="#FFFFFF" transform="translate(541,181)"/>
<path d="M0,0 L14,0 L14,14 L0,14 Z " fill="#FFFFFF" transform="translate(61,181)"/>
<path d="M0,0 L14,0 L14,14 L0,14 Z " fill="#FFFFFF" transform="translate(31,181)"/>
<path d="M0,0 L14,0 L14,14 L0,14 Z " fill="#FFFFFF" transform="translate(586,166)"/>
<path d="M0,0 L14,0 L14,14 L0,14 Z " fill="#FFFFFF" transform="translate(556,166)"/>
<path d="M0,0 L14,0 L14,14 L0,14 Z " fill="#FFFFFF" transform="translate(526,166)"/>
<path d="M0,0 L14,0 L14,14 L0,14 Z " fill="#FFFFFF" transform="translate(76,166)"/>
<path d="M0,0 L14,0 L14,14 L0,14 Z " fill="#FFFFFF" transform="translate(46,166)"/>
<path d="M0,0 L14,0 L14,14 L0,14 Z " fill="#FFFFFF" transform="translate(16,166)"/>
<path d="M0,0 L14,0 L14,14 L0,14 Z " fill="#FFFFFF" transform="translate(571,151)"/>
<path d="M0,0 L14,0 L14,14 L0,14 Z " fill="#FFFFFF" transform="translate(541,151)"/>
<path d="M0,0 L14,0 L14,14 L0,14 Z " fill="#FFFFFF" transform="translate(91,151)"/>
<path d="M0,0 L14,0 L14,14 L0,14 Z " fill="#FFFFFF" transform="translate(61,151)"/>
<path d="M0,0 L14,0 L14,14 L0,14 Z " fill="#FFFFFF" transform="translate(31,151)"/>
<path d="M0,0 L14,0 L14,14 L0,14 Z " fill="#FFFFFF" transform="translate(586,136)"/>
<path d="M0,0 L14,0 L14,14 L0,14 Z " fill="#FFFFFF" transform="translate(556,136)"/>
<path d="M0,0 L14,0 L14,14 L0,14 Z " fill="#FFFFFF" transform="translate(526,136)"/>
<path d="M0,0 L14,0 L14,14 L0,14 Z " fill="#FFFFFF" transform="translate(106,136)"/>
<path d="M0,0 L14,0 L14,14 L0,14 Z " fill="#FFFFFF" transform="translate(76,136)"/>
<path d="M0,0 L14,0 L14,14 L0,14 Z " fill="#FFFFFF" transform="translate(46,136)"/>
<path d="M0,0 L14,0 L14,14 L0,14 Z " fill="#FFFFFF" transform="translate(16,136)"/>
<path d="M0,0 L14,0 L14,14 L0,14 Z " fill="#FFFFFF" transform="translate(571,121)"/>
<path d="M0,0 L14,0 L14,14 L0,14 Z " fill="#FFFFFF" transform="translate(541,121)"/>
<path d="M0,0 L14,0 L14,14 L0,14 Z " fill="#FFFFFF" transform="translate(121,121)"/>
<path d="M0,0 L14,0 L14,14 L0,14 Z " fill="#FFFFFF" transform="translate(91,121)"/>
<path d="M0,0 L14,0 L14,14 L0,14 Z " fill="#FFFFFF" transform="translate(61,121)"/>
<path d="M0,0 L14,0 L14,14 L0,14 Z " fill="#FFFFFF" transform="translate(31,121)"/>
<path d="M0,0 L14,0 L14,14 L0,14 Z " fill="#FFFFFF" transform="translate(586,106)"/>
<path d="M0,0 L14,0 L14,14 L0,14 Z " fill="#FFFFFF" transform="translate(556,106)"/>
<path d="M0,0 L14,0 L14,14 L0,14 Z " fill="#FFFFFF" transform="translate(526,106)"/>
<path d="M0,0 L14,0 L14,14 L0,14 Z " fill="#FFFFFF" transform="translate(136,106)"/>
<path d="M0,0 L14,0 L14,14 L0,14 Z " fill="#FFFFFF" transform="translate(106,106)"/>
<path d="M0,0 L14,0 L14,14 L0,14 Z " fill="#FFFFFF" transform="translate(76,106)"/>
<path d="M0,0 L14,0 L14,14 L0,14 Z " fill="#FFFFFF" transform="translate(46,106)"/>
<path d="M0,0 L14,0 L14,14 L0,14 Z " fill="#FFFFFF" transform="translate(16,106)"/>
<path d="M0,0 L14,0 L14,14 L0,14 Z " fill="#FFFFFF" transform="translate(571,91)"/>
<path d="M0,0 L14,0 L14,14 L0,14 Z " fill="#FFFFFF" transform="translate(541,91)"/>
<path d="M0,0 L14,0 L14,14 L0,14 Z " fill="#FFFFFF" transform="translate(511,91)"/>
<path d="M0,0 L14,0 L14,14 L0,14 Z " fill="#FFFFFF" transform="translate(151,91)"/>
<path d="M0,0 L14,0 L14,14 L0,14 Z " fill="#FFFFFF" transform="translate(121,91)"/>
<path d="M0,0 L14,0 L14,14 L0,14 Z " fill="#FFFFFF" transform="translate(91,91)"/>
<path d="M0,0 L14,0 L14,14 L0,14 Z " fill="#FFFFFF" transform="translate(61,91)"/>
<path d="M0,0 L14,0 L14,14 L0,14 Z " fill="#FFFFFF" transform="translate(31,91)"/>
<path d="M0,0 L14,0 L14,14 L0,14 Z " fill="#FFFFFF" transform="translate(586,76)"/>
<path d="M0,0 L14,0 L14,14 L0,14 Z " fill="#FFFFFF" transform="translate(556,76)"/>
<path d="M0,0 L14,0 L14,14 L0,14 Z " fill="#FFFFFF" transform="translate(526,76)"/>
<path d="M0,0 L14,0 L14,14 L0,14 Z " fill="#FFFFFF" transform="translate(496,76)"/>
<path d="M0,0 L14,0 L14,14 L0,14 Z " fill="#FFFFFF" transform="translate(166,76)"/>
<path d="M0,0 L14,0 L14,14 L0,14 Z " fill="#FFFFFF" transform="translate(136,76)"/>
<path d="M0,0 L14,0 L14,14 L0,14 Z " fill="#FFFFFF" transform="translate(106,76)"/>
<path d="M0,0 L14,0 L14,14 L0,14 Z " fill="#FFFFFF" transform="translate(76,76)"/>
<path d="M0,0 L14,0 L14,14 L0,14 Z " fill="#FFFFFF" transform="translate(46,76)"/>
<path d="M0,0 L14,0 L14,14 L0,14 Z " fill="#FFFFFF" transform="translate(16,76)"/>
<path d="M0,0 L14,0 L14,14 L0,14 Z " fill="#FFFFFF" transform="translate(571,61)"/>
<path d="M0,0 L14,0 L14,14 L0,14 Z " fill="#FFFFFF" transform="translate(541,61)"/>
<path d="M0,0 L14,0 L14,14 L0,14 Z " fill="#FFFFFF" transform="translate(511,61)"/>
<path d="M0,0 L14,0 L14,14 L0,14 Z " fill="#FFFFFF" transform="translate(481,61)"/>
<path d="M0,0 L14,0 L14,14 L0,14 Z " fill="#FFFFFF" transform="translate(211,61)"/>
<path d="M0,0 L14,0 L14,14 L0,14 Z " fill="#FFFFFF" transform="translate(181,61)"/>
<path d="M0,0 L14,0 L14,14 L0,14 Z " fill="#FFFFFF" transform="translate(151,61)"/>
<path d="M0,0 L14,0 L14,14 L0,14 Z " fill="#FFFFFF" transform="translate(121,61)"/>
<path d="M0,0 L14,0 L14,14 L0,14 Z " fill="#FFFFFF" transform="translate(91,61)"/>
<path d="M0,0 L14,0 L14,14 L0,14 Z " fill="#FFFFFF" transform="translate(61,61)"/>
<path d="M0,0 L14,0 L14,14 L0,14 Z " fill="#FFFFFF" transform="translate(31,61)"/>
<path d="M0,0 L14,0 L14,14 L0,14 Z " fill="#FFFFFF" transform="translate(586,46)"/>
<path d="M0,0 L14,0 L14,14 L0,14 Z " fill="#FFFFFF" transform="translate(556,46)"/>
<path d="M0,0 L14,0 L14,14 L0,14 Z " fill="#FFFFFF" transform="translate(526,46)"/>
<path d="M0,0 L14,0 L14,14 L0,14 Z " fill="#FFFFFF" transform="translate(496,46)"/>
<path d="M0,0 L14,0 L14,14 L0,14 Z " fill="#FFFFFF" transform="translate(466,46)"/>
<path d="M0,0 L14,0 L14,14 L0,14 Z " fill="#FFFFFF" transform="translate(376,46)"/>
<path d="M0,0 L14,0 L14,14 L0,14 Z " fill="#FFFFFF" transform="translate(346,46)"/>
<path d="M0,0 L14,0 L14,14 L0,14 Z " fill="#FFFFFF" transform="translate(316,46)"/>
<path d="M0,0 L14,0 L14,14 L0,14 Z " fill="#FFFFFF" transform="translate(286,46)"/>
<path d="M0,0 L14,0 L14,14 L0,14 Z " fill="#FFFFFF" transform="translate(256,46)"/>
<path d="M0,0 L14,0 L14,14 L0,14 Z " fill="#FFFFFF" transform="translate(226,46)"/>
<path d="M0,0 L14,0 L14,14 L0,14 Z " fill="#FFFFFF" transform="translate(196,46)"/>
<path d="M0,0 L14,0 L14,14 L0,14 Z " fill="#FFFFFF" transform="translate(166,46)"/>
<path d="M0,0 L14,0 L14,14 L0,14 Z " fill="#FFFFFF" transform="translate(136,46)"/>
<path d="M0,0 L14,0 L14,14 L0,14 Z " fill="#FFFFFF" transform="translate(106,46)"/>
<path d="M0,0 L14,0 L14,14 L0,14 Z " fill="#FFFFFF" transform="translate(76,46)"/>
<path d="M0,0 L14,0 L14,14 L0,14 Z " fill="#FFFFFF" transform="translate(46,46)"/>
<path d="M0,0 L14,0 L14,14 L0,14 Z " fill="#FFFFFF" transform="translate(16,46)"/>
<path d="M0,0 L14,0 L14,14 L0,14 Z " fill="#FFFFFF" transform="translate(571,31)"/>
<path d="M0,0 L14,0 L14,14 L0,14 Z " fill="#FFFFFF" transform="translate(541,31)"/>
<path d="M0,0 L14,0 L14,14 L0,14 Z " fill="#FFFFFF" transform="translate(511,31)"/>
<path d="M0,0 L14,0 L14,14 L0,14 Z " fill="#FFFFFF" transform="translate(481,31)"/>
<path d="M0,0 L14,0 L14,14 L0,14 Z " fill="#FFFFFF" transform="translate(451,31)"/>
<path d="M0,0 L14,0 L14,14 L0,14 Z " fill="#FFFFFF" transform="translate(391,31)"/>
<path d="M0,0 L14,0 L14,14 L0,14 Z " fill="#FFFFFF" transform="translate(361,31)"/>
<path d="M0,0 L14,0 L14,14 L0,14 Z " fill="#FFFFFF" transform="translate(331,31)"/>
<path d="M0,0 L14,0 L14,14 L0,14 Z " fill="#FFFFFF" transform="translate(301,31)"/>
<path d="M0,0 L14,0 L14,14 L0,14 Z " fill="#FFFFFF" transform="translate(271,31)"/>
<path d="M0,0 L14,0 L14,14 L0,14 Z " fill="#FFFFFF" transform="translate(241,31)"/>
<path d="M0,0 L14,0 L14,14 L0,14 Z " fill="#FFFFFF" transform="translate(211,31)"/>
<path d="M0,0 L14,0 L14,14 L0,14 Z " fill="#FFFFFF" transform="translate(181,31)"/>
<path d="M0,0 L14,0 L14,14 L0,14 Z " fill="#FFFFFF" transform="translate(151,31)"/>
<path d="M0,0 L14,0 L14,14 L0,14 Z " fill="#FFFFFF" transform="translate(121,31)"/>
<path d="M0,0 L14,0 L14,14 L0,14 Z " fill="#FFFFFF" transform="translate(91,31)"/>
<path d="M0,0 L14,0 L14,14 L0,14 Z " fill="#FFFFFF" transform="translate(61,31)"/>
<path d="M0,0 L14,0 L14,14 L0,14 Z " fill="#FFFFFF" transform="translate(31,31)"/>
<path d="M0,0 L14,0 L14,14 L0,14 Z " fill="#FFFFFF" transform="translate(586,16)"/>
<path d="M0,0 L14,0 L14,14 L0,14 Z " fill="#FFFFFF" transform="translate(556,16)"/>
<path d="M0,0 L14,0 L14,14 L0,14 Z " fill="#FFFFFF" transform="translate(526,16)"/>
<path d="M0,0 L14,0 L14,14 L0,14 Z " fill="#FFFFFF" transform="translate(496,16)"/>
<path d="M0,0 L14,0 L14,14 L0,14 Z " fill="#FFFFFF" transform="translate(466,16)"/>
<path d="M0,0 L14,0 L14,14 L0,14 Z " fill="#FFFFFF" transform="translate(436,16)"/>
<path d="M0,0 L14,0 L14,14 L0,14 Z " fill="#FFFFFF" transform="translate(406,16)"/>
<path d="M0,0 L14,0 L14,14 L0,14 Z " fill="#FFFFFF" transform="translate(376,16)"/>
<path d="M0,0 L14,0 L14,14 L0,14 Z " fill="#FFFFFF" transform="translate(346,16)"/>
<path d="M0,0 L14,0 L14,14 L0,14 Z " fill="#FFFFFF" transform="translate(316,16)"/>
<path d="M0,0 L14,0 L14,14 L0,14 Z " fill="#FFFFFF" transform="translate(286,16)"/>
<path d="M0,0 L14,0 L14,14 L0,14 Z " fill="#FFFFFF" transform="translate(256,16)"/>
<path d="M0,0 L14,0 L14,14 L0,14 Z " fill="#FFFFFF" transform="translate(226,16)"/>
<path d="M0,0 L14,0 L14,14 L0,14 Z " fill="#FFFFFF" transform="translate(196,16)"/>
<path d="M0,0 L14,0 L14,14 L0,14 Z " fill="#FFFFFF" transform="translate(166,16)"/>
<path d="M0,0 L14,0 L14,14 L0,14 Z " fill="#FFFFFF" transform="translate(136,16)"/>
<path d="M0,0 L14,0 L14,14 L0,14 Z " fill="#FFFFFF" transform="translate(106,16)"/>
<path d="M0,0 L14,0 L14,14 L0,14 Z " fill="#FFFFFF" transform="translate(76,16)"/>
<path d="M0,0 L14,0 L14,14 L0,14 Z " fill="#FFFFFF" transform="translate(46,16)"/>
<path d="M0,0 L14,0 L14,14 L0,14 Z " fill="#FFFFFF" transform="translate(16,16)"/>
<path d="M0,0 L13,0 L14,1 L14,14 L0,14 Z " fill="#FEFEFE" transform="translate(136,466)"/>
<path d="M0,0 L13,0 L14,1 L14,14 L0,14 Z " fill="#FEFEFE" transform="translate(121,451)"/>
<path d="M0,0 L14,0 L14,14 L1,14 L0,11 Z " fill="#FEFDFD" transform="translate(541,241)"/>
<path d="M0,0 L1,3 L-1,7 L-1,17 L2,25 L10,31 L14,33 L35,35 L35,37 L31,38 L19,38 L7,34 L-3,25 L-5,20 L-5,6 L-3,2 Z " fill="#6D0D07" transform="translate(356,120)"/>
<path d="M0,0 L1,4 L0,5 L0,15 L3,22 L9,27 L18,30 L35,30 L45,27 L48,28 L40,32 L36,34 L37,36 L34,36 L34,34 L19,34 L11,32 L2,26 L-2,20 L-3,16 L-3,6 Z " fill="#931312" transform="translate(357,121)"/>
<path d="M0,0 L10,0 L10,14 L-4,14 L-4,5 Z " fill="#FEFDFD" transform="translate(500,436)"/>
<path d="M0,0 L10,1 L14,2 L14,14 L0,14 Z " fill="#FEFEFE" transform="translate(256,526)"/>
<path d="M0,0 L9,0 L17,4 L21,9 L23,13 L23,20 L20,26 L19,27 L13,27 L9,25 L8,29 L0,28 L-4,25 L-3,16 L-7,11 L-6,5 Z M0,2 L-5,6 L-5,12 L-2,14 L-2,12 L6,11 L4,16 L-1,15 L-2,25 L2,27 L8,27 L9,24 L13,25 L18,26 L21,21 L21,12 L17,6 L10,2 Z " fill="#735223" transform="translate(355,216)"/>
<path d="M0,0 L2,1 L-3,9 L-4,11 L-4,18 L-1,23 L10,30 L16,32 L30,32 L27,35 L24,36 L16,36 L7,33 L-2,27 L-8,20 L-8,10 L-3,2 Z " fill="#B51D1D" transform="translate(397,211)"/>
<path d="M0,0 L9,0 L9,14 L-5,14 L-5,6 Z " fill="#FEFEFE" transform="translate(456,481)"/>
<path d="M0,0 L1,2 L-4,18 L-5,22 L-21,22 L-15,15 Z " fill="#B72121" transform="translate(426,360)"/>
<path d="M0,0 L7,1 L14,4 L14,14 L0,14 Z " fill="#FDFDFD" transform="translate(211,511)"/>
<path d="M0,0 L5,0 L5,13 L-9,13 L-9,2 L-8,1 Z " fill="#FCFBFB" transform="translate(355,527)"/>
<path d="M0,0 L14,0 L14,9 L5,14 L0,14 Z " fill="#FEFEFE" transform="translate(196,76)"/>
<path d="M0,0 L7,0 L7,14 L-7,14 L-7,7 Z " fill="#FEFDFD" transform="translate(473,466)"/>
<path d="M0,0 L7,0 L7,14 L-7,14 L-7,7 Z " fill="#FEFDFD" transform="translate(488,451)"/>
<path d="M0,0 L14,0 L13,6 L9,14 L0,14 Z " fill="#FDFBFB" transform="translate(91,181)"/>
<path d="M0,0 L8,1 L12,4 L20,6 L23,8 L22,13 L21,15 L15,15 L14,16 L5,16 L2,18 L-3,17 L-7,12 L-6,7 L-4,7 L-2,13 L-1,15 L4,13 L13,13 L13,10 L18,10 L18,8 L11,7 L7,4 L4,3 L4,1 Z " fill="#51230B" transform="translate(301,147)"/>
<path d="M0,0 L14,0 L23,4 L20,5 L17,4 L7,4 L-3,8 L-8,13 L-11,21 L-13,18 L-12,11 L-10,6 L-3,1 Z " fill="#8B4413" transform="translate(480,241)"/>
<path d="M0,0 L1,0 L3,9 L8,15 L14,18 L19,19 L31,19 L41,14 L46,8 L49,2 L50,2 L49,10 L44,16 L34,21 L30,22 L17,22 L7,18 L0,10 L-1,8 L-1,1 Z " fill="#721207" transform="translate(214,214)"/>
<path d="M0,0 L9,6 L19,9 L31,9 L40,7 L49,3 L54,0 L52,4 L43,10 L38,12 L31,13 L21,13 L9,10 L3,6 L0,3 Z " fill="#F8BE2B" transform="translate(356,148)"/>
<path d="M0,0 L2,0 L0,8 L-6,11 L-9,16 L-10,17 L-15,17 L-17,8 L-16,6 L-7,3 L-1,1 Z " fill="#914332" transform="translate(386,184)"/>
<path d="M0,0 L4,0 L4,12 L-10,12 L-10,4 Z " fill="#FCFAFA" transform="translate(401,513)"/>
<path d="M0,0 L7,0 L15,6 L16,8 L16,14 L11,13 L4,10 L3,6 L-2,5 Z " fill="#D9B88D" transform="translate(268,170)"/>
<path d="M0,0 L14,0 L14,8 L6,11 L0,11 Z " fill="#FDFCFC" transform="translate(241,61)"/>
<path d="M0,0 L5,0 L5,4 L1,6 L0,11 L-6,16 L-8,23 L-16,23 L-18,19 L-12,17 L-8,11 L-3,10 L-3,5 L-2,1 Z " fill="#632B1A" transform="translate(389,182)"/>
<path d="M0,0 L5,1 L12,6 L10,10 L4,15 L-3,4 L-6,1 Z " fill="#B92727" transform="translate(459,278)"/>
<path d="M0,0 L9,1 L16,7 L14,12 L8,10 L5,10 L4,7 L-4,6 L-3,2 Z " fill="#DABA90" transform="translate(357,219)"/>
<path d="M0,0 L2,3 L6,8 L12,7 L17,6 L22,6 L25,5 L29,6 L29,8 L27,8 L27,10 L22,11 L15,11 L10,14 L5,13 L0,6 Z " fill="#F7C02B" transform="translate(293,156)"/>
<path d="M0,0 L11,0 L14,1 L14,9 L0,9 Z " fill="#FEFEFE" transform="translate(286,531)"/>
<path d="M0,0 L10,0 L9,8 L7,14 L0,14 Z " fill="#FDFBFB" transform="translate(76,226)"/>
<path d="M0,0 L0,3 L-2,7 L-1,16 L5,21 L11,24 L24,25 L21,28 L13,28 L3,24 L-4,18 L-6,14 L-6,8 L-2,1 Z " fill="#B61D1D" transform="translate(316,175)"/>
<path d="M0,0 L5,1 L-1,13 L-1,24 L0,29 L-4,28 L-6,23 L-6,14 L-3,5 Z " fill="#767118" transform="translate(277,208)"/>
<path d="M0,0 L5,5 L12,13 L22,19 L35,21 L33,23 L24,23 L15,20 L9,16 L3,9 L0,4 Z " fill="#F7C12B" transform="translate(338,155)"/>
<path d="M0,0 L5,0 L5,9 L-9,9 L-9,1 Z " fill="#FEFEFE" transform="translate(325,531)"/>
<path d="M0,0 L7,1 L6,3 L4,5 L4,14 L8,23 L11,26 L10,29 L6,27 L2,22 L0,17 Z " fill="#767118" transform="translate(330,215)"/>
<path d="M0,0 L19,0 L19,3 L13,12 L11,12 L6,5 L0,1 Z " fill="#B25D25" transform="translate(224,260)"/>
<path d="M0,0 L14,0 L14,10 L1,7 L0,6 Z " fill="#FEFDFD" transform="translate(361,61)"/>
<path d="M0,0 L4,1 L7,6 L8,10 L8,19 L5,29 L1,29 L2,23 L3,20 L3,8 L0,3 Z " fill="#7B751B" transform="translate(424,139)"/>
<path d="M0,0 L2,1 L-2,7 L-2,17 L5,25 L16,31 L26,33 L26,34 L16,34 L7,30 L-1,24 L-5,16 L-5,7 Z " fill="#921212" transform="translate(392,214)"/>
<path d="M0,0 L4,1 L7,6 L9,12 L10,15 L3,14 L1,9 L-4,7 L-4,2 Z " fill="#8F4231" transform="translate(304,226)"/>
<path d="M0,0 L7,0 L11,4 L10,5 L-8,7 L-9,14 L-10,14 L-11,1 Z " fill="#8D491C" transform="translate(298,263)"/>
<path d="M0,0 L1,4 L1,12 L6,18 L17,22 L33,22 L31,24 L28,25 L16,25 L7,22 L0,16 L-3,6 L-4,2 L-3,4 L-1,4 Z " fill="#911312" transform="translate(217,209)"/>
<path d="M0,0 L8,1 L12,4 L16,5 L16,7 L10,9 L-1,8 L-2,5 Z " fill="#A54E3D" transform="translate(300,149)"/>
<path d="M0,0 L4,2 L2,8 L-3,13 L-6,14 L-13,9 L-11,2 L-6,1 L-8,7 L-8,10 L-5,11 L-4,6 Z " fill="#8C6C49" transform="translate(274,180)"/>
<path d="M0,0 L4,0 L3,7 L9,4 L11,4 L11,7 L5,9 L6,12 L8,14 L3,15 L-2,9 L-1,1 Z " fill="#D2B187" transform="translate(407,177)"/>
<path d="M0,0 L10,1 L18,8 L19,16 L16,20 L11,20 L11,14 L17,16 L15,8 L8,3 L1,3 L-1,7 L1,8 L-4,8 L-3,4 Z " fill="#B99B6D" transform="translate(267,168)"/>
<path d="M0,0 L2,1 L4,7 L8,9 L10,14 L18,14 L19,20 L16,20 L15,16 L10,17 L5,12 L0,11 L0,4 L-2,4 L-3,7 L-3,2 Z " fill="#672D1C" transform="translate(297,226)"/>
<path d="M0,0 L4,0 L4,7 L7,7 L8,14 L4,14 L-1,11 L-2,9 L-2,2 Z " fill="#D0B084" transform="translate(323,128)"/>
<path d="M0,0 L14,0 L24,4 L33,11 L38,18 L35,19 L29,11 L19,5 L12,3 L0,1 Z " fill="#7A1509" transform="translate(396,209)"/>
<path d="M0,0 L0,3 L-1,5 L-7,6 L-7,8 L-12,8 L-12,11 L-3,11 L5,12 L6,5 L7,5 L7,12 L5,14 L-13,13 L-14,12 L-14,7 L-9,6 L-9,4 L-2,2 Z " fill="#532307" transform="translate(188,229)"/>
<path d="M0,0 L14,0 L13,3 L2,10 L0,10 Z " fill="#FCFAFA" transform="translate(181,91)"/>
<path d="M0,0 L11,0 L23,3 L23,4 L-4,4 L-14,8 L-16,7 L-4,1 Z " fill="#FEF6CF" transform="translate(378,103)"/>
<path d="M0,0 L2,0 L2,2 L5,3 L-15,8 L-23,10 L-22,6 Z " fill="#F9D740" transform="translate(270,420)"/>
<path d="M0,0 L4,1 L7,4 L-6,17 L-7,15 Z " fill="#C03C3C" transform="translate(266,340)"/>
<path d="M0,0 L9,0 L7,5 L2,14 L0,14 Z " fill="#FCFAFA" transform="translate(106,166)"/>
<path d="M0,0 L5,0 L1,2 L0,10 L4,15 L8,15 L6,13 L7,10 L10,13 L15,13 L15,16 L12,18 L5,18 L-2,13 L-3,11 L-3,4 Z " fill="#B29468" transform="translate(406,176)"/>
<path d="M0,0 L11,2 L10,7 L9,9 L4,9 L-4,2 Z " fill="#9D4A39" transform="translate(432,204)"/>
<path d="M0,0 L7,6 L16,12 L28,13 L28,16 L20,16 L10,12 L2,5 Z " fill="#847C1F" transform="translate(348,155)"/>
<path d="M0,0 L10,0 L11,3 L1,3 L-7,6 L-12,10 L-13,12 L-17,13 L-15,8 L-6,2 Z " fill="#DE894A" transform="translate(487,244)"/>
<path d="M0,0 L5,2 L14,7 L14,8 L0,8 Z " fill="#FCFBFB" transform="translate(196,502)"/>
<path d="M0,0 L7,6 L15,11 L22,13 L21,15 L14,14 L4,8 L0,3 Z " fill="#D28305" transform="translate(300,196)"/>
<path d="M0,0 L0,3 L-2,7 L-2,16 L2,22 L10,27 L7,28 L-1,22 L-5,16 L-5,6 Z " fill="#761409" transform="translate(312,175)"/>
<path d="M0,0 L4,1 L5,9 L3,10 L3,6 L-5,6 L-8,5 L-13,6 L-14,3 L-6,2 L0,2 Z " fill="#682F1A" transform="translate(440,200)"/>
<path d="M0,0 L2,2 L2,11 L-1,16 L-6,15 L-7,13 L-4,13 L-4,9 L-2,8 Z " fill="#A0835B" transform="translate(374,226)"/>
<path d="M0,0 L5,0 L5,6 L-3,6 L-8,5 L-6,1 Z " fill="#904331" transform="translate(188,235)"/>
<path d="M0,0 L11,6 L15,8 L23,9 L23,11 L13,11 L2,5 Z " fill="#CE7D00" transform="translate(211,230)"/>
<path d="M0,0 L1,3 L-1,6 L3,8 L8,10 L13,4 L14,1 L16,0 L16,6 L20,7 L12,8 L8,13 L3,11 L-2,7 L-1,2 Z " fill="#6D4E23" transform="translate(262,183)"/>
<path d="M0,0 L1,0 L3,9 L8,12 L10,12 L9,7 L12,9 L18,9 L18,12 L16,12 L16,14 L5,14 L0,8 Z " fill="#9E8052" transform="translate(320,130)"/>
<path d="M0,0 L3,1 L-2,5 L-6,11 L-9,11 L-10,5 L-8,3 Z " fill="#B25545" transform="translate(381,188)"/>
<path d="M0,0 L1,0 L3,8 L8,12 L15,13 L21,11 L20,14 L16,16 L9,16 L2,12 L0,8 Z " fill="#F8C22D" transform="translate(319,132)"/>
<path d="M0,0 L2,0 L1,7 L-6,13 L-9,14 L-20,14 L-22,12 L-8,11 L-4,8 L-2,8 Z " fill="#730E09" transform="translate(345,191)"/>
<path d="M0,0 L2,2 L1,7 L2,13 L-1,16 L-11,16 L-16,12 L-15,10 L-10,14 L-3,14 L0,13 L-1,11 L-5,10 L-1,8 L-1,5 L1,5 Z " fill="#795A30" transform="translate(421,179)"/>
<path d="M0,0 L2,4 L5,13 L12,15 L12,16 L3,16 L0,11 L-1,1 Z " fill="#491C07" transform="translate(368,191)"/>
<path d="M0,0 L5,0 L-1,14 L-2,14 L-2,2 L-5,1 Z " fill="#D92828" transform="translate(88,295)"/>
<path d="M0,0 L5,2 L11,5 L18,6 L15,9 L8,8 L0,3 Z " fill="#ECBF5C" transform="translate(305,255)"/>
<path d="M0,0 L6,2 L15,8 L20,14 L21,20 L19,18 L15,11 L4,4 Z " fill="#FBE7B8" transform="translate(416,210)"/>
<path d="M0,0 L2,1 L-1,7 L4,7 L4,8 L-3,10 L-4,12 L-7,11 L-7,6 Z " fill="#997B55" transform="translate(264,169)"/>
<path d="M0,0 L5,0 L0,4 L-5,9 L-8,19 L-9,19 L-9,9 L-2,1 Z " fill="#6C0C06" transform="translate(394,210)"/>
<path d="M0,0 L8,0 L7,6 L5,7 L5,5 L1,6 L-1,8 L-3,4 Z " fill="#86632B" transform="translate(262,177)"/>
<path d="M0,0 L14,0 L14,3 L8,4 L0,4 Z " fill="#FCFBFB" transform="translate(271,61)"/>
<path d="M0,0 L4,2 L9,7 L11,10 L11,17 L9,19 L8,10 L3,5 L0,2 Z " fill="#FCEFB3" transform="translate(339,177)"/>
<path d="M0,0 L11,0 L11,1 L0,3 L-6,8 L-6,13 L-3,16 L-7,15 L-9,13 L-8,7 L-3,2 Z " fill="#6F5127" transform="translate(264,167)"/>
<path d="M0,0 L2,1 L3,6 L1,6 L0,11 L-5,11 L-5,7 L-1,6 L-2,2 Z " fill="#927344" transform="translate(419,178)"/>
<path d="M0,0 L17,0 L17,2 L13,3 L1,3 Z " fill="#741609" transform="translate(374,155)"/>
<path d="M0,0 L21,0 L21,1 L2,2 L-9,6 L-14,8 L-14,5 Z " fill="#E7C14A" transform="translate(374,106)"/>
<path d="M0,0 L2,1 L3,9 L0,13 L-5,13 L-5,7 L1,9 Z " fill="#B19367" transform="translate(283,175)"/>
<path d="M0,0 L4,4 L5,6 L5,13 L1,17 L1,7 Z " fill="#FCD468" transform="translate(376,222)"/>
<path d="M0,0 L3,3 L3,8 L-3,11 L-10,10 L-10,9 L-1,9 L-1,7 L1,7 L0,5 L-4,4 L-3,2 L0,2 Z " fill="#7D5C2F" transform="translate(337,135)"/>
<path d="M0,0 L4,1 L6,3 L6,9 L2,8 L1,4 L-1,4 Z " fill="#7F591F" transform="translate(364,230)"/>
<path d="M0,0 L4,1 L0,11 L-4,10 L-2,4 Z " fill="#AE9165" transform="translate(360,230)"/>
<path d="M0,0 L4,1 L7,10 L4,9 L2,6 L-3,3 L-3,1 Z " fill="#B05444" transform="translate(304,228)"/>
<path d="M0,0 L3,1 L3,3 L-2,3 L-2,6 L-7,6 L-7,4 L-16,6 L-18,2 L-4,3 L0,2 Z " fill="#6E311E" transform="translate(316,154)"/>
<path d="M0,0 L4,0 L4,14 L2,12 L0,5 Z " fill="#FCFAFA" transform="translate(536,226)"/>
<path d="M0,0 L4,1 L7,6 L8,10 L8,19 L6,17 L4,7 L2,1 Z " fill="#6F6B15" transform="translate(424,139)"/>
<path d="M0,0 L14,0 L14,3 L3,3 L0,2 Z " fill="#FBF9F9" transform="translate(331,61)"/>
<path d="M0,0 L1,0 L1,15 L-1,15 L-2,12 L-2,3 Z " fill="#5F570D" transform="translate(335,217)"/>
<path d="M0,0 L2,0 L2,2 L5,3 L-9,6 L-8,2 Z " fill="#F2CD3D" transform="translate(270,420)"/>
<path d="M0,0 L1,0 L3,9 L7,15 L4,15 L0,10 L-1,8 L-1,1 Z " fill="#690905" transform="translate(214,214)"/>
<path d="M0,0 L3,1 L1,6 L1,9 L2,11 L-2,9 L-4,8 L-2,1 Z " fill="#8E6E4A" transform="translate(265,181)"/>
<path d="M0,0 L6,1 L18,0 L18,2 L12,4 L1,3 Z " fill="#924432" transform="translate(298,154)"/>
<path d="M0,0 L15,2 L15,4 L6,4 L-2,2 Z " fill="#D89207" transform="translate(202,251)"/>
<path d="M0,0 L2,0 L2,7 L6,8 L6,10 L0,9 L-1,8 Z " fill="#562707" transform="translate(295,230)"/>
<path d="M0,0 L2,1 L2,8 L6,10 L5,12 L0,11 L0,4 L-2,4 L-3,7 L-3,2 Z " fill="#622F12" transform="translate(297,226)"/>
<path d="M0,0 L6,1 L9,3 L6,4 L5,6 L6,7 L3,8 L3,2 L-3,4 L-2,1 Z " fill="#7B5D32" transform="translate(324,126)"/>
<path d="M0,0 L4,4 L9,5 L9,6 L2,7 L1,9 L-1,7 L-1,1 Z " fill="#AC8E62" transform="translate(351,221)"/>
<path d="M0,0 L3,1 L-1,3 L-4,10 L-9,11 L-11,9 L-6,7 L-2,1 Z " fill="#763421" transform="translate(383,192)"/>
<path d="M0,0 L4,2 L9,5 L15,7 L15,8 L7,7 L0,2 Z " fill="#D68909" transform="translate(403,193)"/>
<path d="M0,0 L2,0 L1,4 L-1,6 L-9,6 L-8,4 L-1,1 Z " fill="#FBE680" transform="translate(384,178)"/>
<path d="M0,0 L8,1 L15,5 L14,7 L10,6 L4,3 L4,1 Z " fill="#4A1D08" transform="translate(301,147)"/>
<path d="M0,0 L0,3 L-7,10 L-14,10 L-11,8 L-4,4 Z " fill="#EAAE14" transform="translate(478,398)"/>
<path d="M0,0 L1,4 L-2,9 L-7,8 L-8,6 L-5,6 L-4,3 L-4,6 L-1,3 Z " fill="#8C6C48" transform="translate(375,233)"/>
<path d="M0,0 L9,0 L9,3 L2,2 L1,8 L0,8 Z " fill="#4C4908" transform="translate(328,213)"/>
<path d="M0,0 L5,0 L1,2 L-1,13 L-3,11 L-3,4 Z " fill="#896B3D" transform="translate(406,176)"/>
<path d="M0,0 L7,0 L7,2 L0,6 Z " fill="#F8F4F4" transform="translate(166,106)"/>
<path d="M0,0 L6,0 L5,5 L3,7 L2,4 L-1,2 Z " fill="#795626" transform="translate(355,227)"/>
<path d="M0,0 L6,0 L11,2 L11,3 L0,3 Z " fill="#F7F3F3" transform="translate(241,522)"/>
<path d="M0,0 L16,0 L16,1 L5,3 L5,1 L0,1 Z " fill="#E7A90F" transform="translate(376,406)"/>
<path d="M0,0 L2,0 L4,5 L3,9 L-1,12 L-1,9 L1,8 Z " fill="#512309" transform="translate(443,201)"/>
<path d="M0,0 L3,1 L-2,9 L-4,9 L-3,3 Z " fill="#6E0F09" transform="translate(218,204)"/>
<path d="M0,0 L4,2 L2,6 L-3,6 L-1,1 Z " fill="#816031" transform="translate(274,180)"/>
<path d="M0,0 L2,0 L0,5 L-4,7 L-8,10 L-6,6 Z M-9,10 Z " fill="#EEE4E4" transform="translate(516,311)"/>
<path d="M0,0 L0,3 L-3,9 L-4,14 L-5,14 L-5,6 Z " fill="#6B0B07" transform="translate(312,175)"/>
<path d="M0,0 L3,0 L2,4 L-5,4 L-6,2 Z " fill="#B05444" transform="translate(189,236)"/>
<path d="M0,0 L5,0 L3,5 L0,7 Z " fill="#FAF7F7" transform="translate(121,151)"/>
<path d="M0,0 L2,0 L2,3 L-3,6 L-8,5 L-4,3 Z " fill="#AD8F63" transform="translate(335,130)"/>
<path d="M0,0 L2,1 L2,6 L-1,6 L-1,4 L-6,4 L-5,2 Z " fill="#6F3519" transform="translate(194,231)"/>
<path d="M0,0 L4,2 L8,8 L7,12 L4,6 Z " fill="#FEF4D8" transform="translate(429,218)"/>
<path d="M0,0 L5,1 L4,5 L0,5 Z " fill="#FEC72D" transform="translate(398,165)"/>
<path d="M0,0 L4,0 L4,3 L-3,4 L-4,1 Z " fill="#7D1C0D" transform="translate(376,107)"/>
<path d="M0,0 L5,0 L5,2 L0,4 L-5,4 L-4,2 Z " fill="#481B07" transform="translate(303,224)"/>
<path d="M0,0 L4,2 L0,3 L-1,5 L-4,9 L-4,4 Z " fill="#5B2C0E" transform="translate(370,187)"/>
<path d="M0,0 L3,0 L2,4 L-3,5 L-3,1 Z " fill="#84663B" transform="translate(413,179)"/>
<path d="M0,0 L8,4 L10,7 L7,7 L2,3 L-2,1 Z " fill="#7D6030" transform="translate(275,167)"/>
<path d="M0,0 L4,1 L8,5 L5,5 L-1,2 Z " fill="#83210C" transform="translate(416,212)"/>
<path d="M0,0 L12,1 L12,2 L2,4 Z " fill="#783622" transform="translate(298,156)"/>
<path d="M0,0 L1,0 L2,5 L6,8 L0,7 L-1,6 L-1,1 Z " fill="#763421" transform="translate(299,228)"/>
<path d="M0,0 L4,1 L9,6 L5,5 Z " fill="#B49668" transform="translate(365,219)"/>
<path d="M0,0 L9,1 L7,3 L-2,2 Z " fill="#51230A" transform="translate(433,200)"/>
<path d="M0,0 L9,0 L10,4 L7,4 L7,2 L0,1 Z " fill="#F0C530" transform="translate(388,405)"/>
<path d="M0,0 L3,1 L2,5 L-2,4 Z " fill="#CE7D00" transform="translate(347,243)"/>
<path d="M0,0 L7,1 L5,2 L5,4 L-2,3 Z " fill="#811C0E" transform="translate(396,107)"/>
<path d="M0,0 L2,0 L2,3 L-3,5 L-6,3 Z " fill="#B39568" transform="translate(416,181)"/>
</svg>
